<svg xmlns="http://www.w3.org/2000/svg" xmlns:xlink="http://www.w3.org/1999/xlink" width="1080" zoomAndPan="magnify" viewBox="0 0 810 809.999993" height="1080" preserveAspectRatio="xMidYMid meet" version="1.0"><defs><g/><clipPath id="1fb4372bb0"><path d="M 494.097656 515.640625 L 572.097656 515.640625 L 572.097656 538 L 494.097656 538 Z M 494.097656 515.640625 " clip-rule="nonzero"/></clipPath><clipPath id="81ce0362ba"><path d="M 351 186 L 376 186 L 376 224 L 351 224 Z M 351 186 " clip-rule="nonzero"/></clipPath><clipPath id="1e60eb72c1"><path d="M 370.101562 186.855469 L 379.894531 214.417969 L 354.457031 223.460938 L 344.660156 195.898438 Z M 370.101562 186.855469 " clip-rule="nonzero"/></clipPath><clipPath id="c03ce65738"><path d="M 370.101562 186.855469 L 379.894531 214.417969 L 354.457031 223.460938 L 344.660156 195.898438 Z M 370.101562 186.855469 " clip-rule="nonzero"/></clipPath></defs><g fill="#616041" fill-opacity="1"><g transform="translate(-33.03797, 316.453576)"><g><path d="M 307.210938 -108.589844 C 297.929688 -99 274.414062 -60.328125 245.953125 -17.632812 C 216.871094 26.296875 185.933594 51.976562 137.054688 51.976562 C 93.121094 51.976562 64.039062 28.460938 64.039062 1.855469 C 64.039062 -40.21875 109.828125 -66.824219 147.570312 -66.824219 C 174.179688 -66.824219 196.453125 -53.210938 196.453125 -30.007812 C 196.453125 1.238281 164.277344 17.945312 136.742188 17.945312 C 112.613281 17.945312 101.476562 9.28125 98.691406 9.28125 C 98.070312 9.28125 96.835938 10.210938 96.835938 10.828125 C 96.835938 13.613281 116.632812 21.65625 138.289062 21.65625 C 167.679688 21.65625 200.164062 1.546875 200.164062 -29.699219 C 200.164062 -59.398438 171.703125 -76.105469 140.457031 -76.105469 C 103.023438 -76.105469 55.996094 -46.714844 55.996094 -4.332031 C 55.996094 30.628906 90.648438 55.6875 137.054688 55.6875 C 197.070312 55.6875 254.617188 19.492188 282.460938 -44.550781 C 314.945312 -119.109375 323.296875 -120.347656 323.296875 -124.679688 C 323.296875 -125.296875 322.058594 -125.914062 321.132812 -125.914062 C 313.707031 -125.914062 267.300781 -61.875 223.367188 -61.875 C 213.160156 -61.875 206.351562 -67.445312 206.351562 -87.554688 C 206.351562 -92.8125 207.898438 -99.617188 210.066406 -103.949219 C 281.839844 -111.375 367.226562 -160.875 367.226562 -196.761719 C 368.464844 -207.898438 359.183594 -215.945312 344.023438 -215.945312 C 321.441406 -215.945312 286.480469 -201.710938 267.609375 -191.195312 C 249.046875 -212.230469 221.203125 -225.226562 193.050781 -225.226562 C 154.6875 -225.226562 120.347656 -200.476562 120.347656 -160.257812 C 120.347656 -125.605469 158.089844 -103.332031 189.648438 -103.332031 C 189.027344 -100.855469 188.410156 -97.453125 188.410156 -94.976562 C 188.410156 -74.558594 201.09375 -56.925781 222.75 -56.925781 C 253.070312 -56.925781 286.480469 -89.101562 306.589844 -109.210938 Z M 125.296875 -165.824219 C 125.296875 -193.050781 151.285156 -221.511719 190.882812 -221.511719 C 220.585938 -221.511719 247.191406 -209.445312 264.515625 -189.335938 C 235.125 -171.394531 204.804688 -148.808594 192.121094 -115.707031 C 162.113281 -115.707031 125.296875 -133.648438 125.296875 -165.824219 Z M 363.515625 -197.382812 C 363.515625 -162.730469 281.839844 -115.085938 213.160156 -114.46875 C 223.058594 -143.242188 245.023438 -165.824219 269.464844 -183.148438 C 280.601562 -168.300781 286.171875 -154.070312 287.410156 -154.070312 C 288.648438 -154.070312 289.882812 -154.6875 289.882812 -155.617188 C 289.882812 -159.019531 281.839844 -171.394531 272.558594 -185.625 C 290.8125 -199.238281 321.132812 -212.230469 344.335938 -212.230469 C 357.945312 -212.230469 363.515625 -207.898438 363.515625 -197.382812 Z M 363.515625 -197.382812 "/></g></g></g><g fill="#616041" fill-opacity="1"><g transform="translate(224.670927, 316.453576)"><g><path d="M 131.792969 -71.15625 C 131.792969 -79.820312 125.605469 -86.007812 116.324219 -86.007812 C 99.617188 -86.007812 79.820312 -73.941406 62.804688 -56.617188 C 60.328125 -54.140625 51.355469 -44.550781 51.355469 -43.3125 C 51.355469 -42.695312 52.59375 -41.457031 52.902344 -41.457031 C 53.210938 -41.457031 53.523438 -42.074219 53.832031 -42.382812 C 53.832031 -42.382812 54.140625 -42.382812 54.140625 -41.765625 C 54.140625 -40.835938 53.210938 -37.433594 53.210938 -32.792969 C 53.210938 -16.707031 60.636719 0.308594 77.652344 0 C 92.195312 -0.308594 104.257812 -6.1875 119.726562 -20.417969 C 129.007812 -28.773438 141.074219 -43.003906 141.074219 -44.242188 C 141.074219 -45.476562 140.457031 -46.097656 139.527344 -46.097656 C 138.289062 -46.097656 135.195312 -40.527344 123.132812 -28.152344 C 104.257812 -9.589844 88.171875 -3.402344 79.820312 -3.710938 C 70.226562 -4.023438 66.824219 -8.042969 66.824219 -20.109375 C 66.824219 -23.511719 67.445312 -26.914062 68.0625 -30.320312 C 86.316406 -34.03125 131.792969 -47.953125 131.792969 -71.15625 Z M 116.324219 -82.292969 C 120.347656 -82.292969 122.511719 -80.4375 122.511719 -76.414062 C 122.511719 -54.140625 89.71875 -36.507812 69.300781 -34.03125 C 73.632812 -51.355469 99.929688 -82.292969 116.324219 -82.292969 Z M 116.324219 -82.292969 "/></g></g></g><g fill="#616041" fill-opacity="1"><g transform="translate(310.677072, 316.453576)"><g><path d="M 76.726562 -1.855469 C 86.007812 -16.398438 142.003906 -82.292969 156.851562 -82.292969 C 159.636719 -82.292969 161.183594 -80.746094 161.183594 -78.582031 C 161.183594 -70.226562 127.773438 -44.550781 127.773438 -19.800781 C 127.773438 -8.664062 132.101562 0 141.382812 0 C 148.5 0 159.328125 -8.351562 172.941406 -21.964844 C 176.960938 -25.988281 192.429688 -43.003906 192.429688 -44.550781 C 192.429688 -45.167969 192.121094 -46.097656 191.195312 -46.097656 C 189.335938 -46.097656 190.574219 -45.167969 174.796875 -28.460938 C 162.113281 -14.851562 149.117188 -3.710938 142.003906 -3.710938 C 138.910156 -3.710938 137.054688 -6.804688 137.054688 -9.898438 C 137.054688 -14.851562 143.859375 -25.988281 157.78125 -44.859375 C 163.039062 -51.976562 169.226562 -60.945312 169.226562 -71.464844 C 169.226562 -77.960938 165.824219 -86.007812 158.089844 -86.007812 C 142.3125 -86.007812 106.734375 -42.695312 94.667969 -31.246094 L 94.050781 -31.867188 C 100.855469 -40.835938 113.539062 -58.472656 113.539062 -70.847656 C 113.539062 -80.128906 110.136719 -86.007812 102.09375 -86.007812 C 90.027344 -86.007812 77.652344 -74.867188 62.804688 -57.542969 C 58.78125 -52.902344 51.046875 -44.242188 51.046875 -43.3125 C 51.046875 -42.074219 51.664062 -41.457031 52.59375 -41.457031 C 53.832031 -41.457031 53.523438 -42.695312 68.0625 -58.472656 C 83.839844 -75.796875 92.195312 -82.292969 100.855469 -82.292969 C 103.332031 -82.292969 105.496094 -80.746094 105.496094 -77.652344 C 105.496094 -68.0625 61.875 -11.445312 55.996094 0 Z M 76.726562 -1.855469 "/></g></g></g><g fill="#616041" fill-opacity="1"><g transform="translate(448.039355, 316.453576)"><g><path d="M 131.792969 -71.15625 C 131.792969 -79.820312 125.605469 -86.007812 116.324219 -86.007812 C 99.617188 -86.007812 79.820312 -73.941406 62.804688 -56.617188 C 60.328125 -54.140625 51.355469 -44.550781 51.355469 -43.3125 C 51.355469 -42.695312 52.59375 -41.457031 52.902344 -41.457031 C 53.210938 -41.457031 53.523438 -42.074219 53.832031 -42.382812 C 53.832031 -42.382812 54.140625 -42.382812 54.140625 -41.765625 C 54.140625 -40.835938 53.210938 -37.433594 53.210938 -32.792969 C 53.210938 -16.707031 60.636719 0.308594 77.652344 0 C 92.195312 -0.308594 104.257812 -6.1875 119.726562 -20.417969 C 129.007812 -28.773438 141.074219 -43.003906 141.074219 -44.242188 C 141.074219 -45.476562 140.457031 -46.097656 139.527344 -46.097656 C 138.289062 -46.097656 135.195312 -40.527344 123.132812 -28.152344 C 104.257812 -9.589844 88.171875 -3.402344 79.820312 -3.710938 C 70.226562 -4.023438 66.824219 -8.042969 66.824219 -20.109375 C 66.824219 -23.511719 67.445312 -26.914062 68.0625 -30.320312 C 86.316406 -34.03125 131.792969 -47.953125 131.792969 -71.15625 Z M 116.324219 -82.292969 C 120.347656 -82.292969 122.511719 -80.4375 122.511719 -76.414062 C 122.511719 -54.140625 89.71875 -36.507812 69.300781 -34.03125 C 73.632812 -51.355469 99.929688 -82.292969 116.324219 -82.292969 Z M 116.324219 -82.292969 "/></g></g></g><g fill="#616041" fill-opacity="1"><g transform="translate(534.045501, 316.453576)"><g><path d="M 91.574219 -15.777344 C 96.523438 -21.039062 100.238281 -27.226562 100.238281 -34.648438 C 100.238281 -47.335938 93.742188 -54.140625 93.742188 -77.035156 C 93.742188 -80.128906 94.359375 -81.054688 94.976562 -84.148438 C 100.546875 -86.007812 107.351562 -87.863281 107.351562 -93.742188 C 107.351562 -96.523438 105.804688 -98.382812 102.09375 -98.382812 C 95.289062 -98.382812 92.503906 -89.410156 91.882812 -89.101562 C 90.027344 -88.171875 72.085938 -68.992188 64.96875 -60.019531 C 56.304688 -49.191406 51.355469 -45.167969 51.355469 -43.003906 C 51.355469 -42.382812 51.664062 -41.765625 52.59375 -41.765625 C 53.523438 -41.765625 54.140625 -42.695312 55.378906 -44.242188 C 62.804688 -52.59375 87.554688 -81.984375 91.265625 -84.148438 L 91.882812 -83.53125 C 90.027344 -81.984375 90.027344 -69.300781 90.027344 -54.449219 C 90.027344 -37.742188 73.320312 -3.710938 58.78125 -3.710938 C 55.070312 -3.710938 53.523438 -5.570312 53.523438 -8.351562 C 53.523438 -13.921875 57.851562 -11.445312 57.851562 -17.632812 C 57.851562 -20.417969 54.757812 -22.585938 51.355469 -22.585938 C 45.789062 -22.585938 43.621094 -19.179688 43.621094 -13.921875 C 43.621094 -10.519531 46.097656 -5.257812 48.570312 -3.402344 C 52.59375 -0.308594 55.378906 0 62.492188 0 C 79.820312 0 94.359375 -9.898438 111.066406 -28.773438 C 117.253906 -35.578125 123.75 -43.3125 123.75 -44.242188 C 123.75 -45.476562 123.132812 -46.097656 122.203125 -46.097656 C 120.964844 -46.097656 120.964844 -44.550781 114.46875 -37.433594 C 109.210938 -31.246094 102.402344 -22.894531 92.195312 -15.777344 L 91.574219 -16.398438 Z M 91.574219 -15.777344 "/></g></g></g><g fill="#616041" fill-opacity="1"><g transform="translate(602.726619, 316.453576)"><g><path d="M 69.300781 0 C 77.960938 0 90.648438 -8.042969 105.804688 -23.820312 C 118.800781 -37.433594 124.679688 -44.550781 124.679688 -45.476562 C 124.679688 -46.714844 123.75 -47.023438 122.820312 -47.023438 C 122.203125 -47.023438 111.992188 -34.648438 103.949219 -26.605469 C 93.742188 -16.085938 79.507812 -3.710938 69.609375 -3.710938 C 66.824219 -3.710938 63.730469 -4.949219 63.730469 -10.210938 C 63.730469 -16.707031 69.609375 -24.75 106.734375 -86.007812 L 87.242188 -84.769531 C 82.601562 -78.273438 68.679688 -64.039062 60.636719 -54.757812 C 52.59375 -45.476562 51.355469 -44.242188 51.355469 -43.621094 C 51.355469 -42.695312 51.664062 -41.765625 52.59375 -41.765625 C 53.523438 -41.765625 53.832031 -42.074219 56.925781 -45.789062 C 71.773438 -62.492188 79.507812 -70.539062 83.222656 -74.25 L 83.839844 -73.632812 C 73.320312 -57.851562 54.449219 -36.816406 54.449219 -16.085938 C 54.449219 -6.804688 59.710938 0 69.300781 0 Z M 117.5625 -134.886719 C 117.5625 -130.246094 120.347656 -126.84375 124.679688 -126.84375 C 131.484375 -126.84375 135.507812 -133.339844 135.507812 -138.601562 C 135.507812 -143.242188 132.722656 -146.644531 128.390625 -146.644531 C 121.585938 -146.644531 117.5625 -140.148438 117.5625 -134.886719 Z M 117.5625 -134.886719 "/></g></g></g><g fill="#616041" fill-opacity="1"><g transform="translate(671.407737, 316.453576)"><g><path d="M 91.574219 -15.777344 C 96.523438 -21.039062 100.238281 -27.226562 100.238281 -34.648438 C 100.238281 -47.335938 93.742188 -54.140625 93.742188 -77.035156 C 93.742188 -80.128906 94.359375 -81.054688 94.976562 -84.148438 C 100.546875 -86.007812 107.351562 -87.863281 107.351562 -93.742188 C 107.351562 -96.523438 105.804688 -98.382812 102.09375 -98.382812 C 95.289062 -98.382812 92.503906 -89.410156 91.882812 -89.101562 C 90.027344 -88.171875 72.085938 -68.992188 64.96875 -60.019531 C 56.304688 -49.191406 51.355469 -45.167969 51.355469 -43.003906 C 51.355469 -42.382812 51.664062 -41.765625 52.59375 -41.765625 C 53.523438 -41.765625 54.140625 -42.695312 55.378906 -44.242188 C 62.804688 -52.59375 87.554688 -81.984375 91.265625 -84.148438 L 91.882812 -83.53125 C 90.027344 -81.984375 90.027344 -69.300781 90.027344 -54.449219 C 90.027344 -37.742188 73.320312 -3.710938 58.78125 -3.710938 C 55.070312 -3.710938 53.523438 -5.570312 53.523438 -8.351562 C 53.523438 -13.921875 57.851562 -11.445312 57.851562 -17.632812 C 57.851562 -20.417969 54.757812 -22.585938 51.355469 -22.585938 C 45.789062 -22.585938 43.621094 -19.179688 43.621094 -13.921875 C 43.621094 -10.519531 46.097656 -5.257812 48.570312 -3.402344 C 52.59375 -0.308594 55.378906 0 62.492188 0 C 79.820312 0 94.359375 -9.898438 111.066406 -28.773438 C 117.253906 -35.578125 123.75 -43.3125 123.75 -44.242188 C 123.75 -45.476562 123.132812 -46.097656 122.203125 -46.097656 C 120.964844 -46.097656 120.964844 -44.550781 114.46875 -37.433594 C 109.210938 -31.246094 102.402344 -22.894531 92.195312 -15.777344 L 91.574219 -16.398438 Z M 91.574219 -15.777344 "/></g></g></g><g fill="#616041" fill-opacity="1"><g transform="translate(61.3214, 641.20356)"><g><path d="M 70.847656 -147.261719 C 73.320312 -147.261719 77.34375 -168.609375 99.929688 -191.195312 C 117.5625 -208.828125 140.148438 -219.039062 163.660156 -219.039062 C 175.726562 -219.039062 189.957031 -215.945312 199.855469 -208.828125 C 158.710938 -200.476562 94.976562 -154.996094 94.976562 -108.28125 C 94.976562 -85.386719 110.757812 -74.25 129.007812 -74.25 C 175.414062 -74.25 219.964844 -124.679688 219.964844 -169.226562 C 219.964844 -182.839844 217.179688 -196.144531 207.589844 -206.972656 C 219.347656 -209.757812 231.101562 -210.375 245.644531 -210.375 C 261.113281 -210.375 280.292969 -207.898438 297.308594 -199.855469 C 267.300781 -180.675781 238.21875 -143.242188 221.820312 -112.613281 C 200.164062 -72.394531 167.679688 -1.855469 112.921875 -1.855469 C 98.691406 -1.855469 93.121094 -7.425781 93.121094 -13.921875 C 93.121094 -17.015625 96.214844 -19.179688 96.214844 -24.75 C 96.214844 -31.867188 90.335938 -36.507812 83.53125 -36.507812 C 76.105469 -36.507812 72.085938 -30.628906 72.085938 -23.511719 C 72.085938 -5.570312 89.410156 1.855469 108.589844 1.855469 C 156.234375 1.855469 201.710938 -41.457031 229.246094 -89.71875 C 256.78125 -137.671875 275.035156 -179.4375 301.332031 -197.691406 C 315.253906 -189.648438 322.058594 -176.34375 322.058594 -160.566406 C 322.058594 -133.03125 301.949219 -98.382812 271.320312 -98.382812 C 260.804688 -98.382812 253.378906 -106.425781 252.140625 -106.425781 C 250.902344 -106.425781 250.285156 -105.804688 250.285156 -104.878906 C 250.285156 -102.710938 263.898438 -93.429688 275.34375 -93.429688 C 304.425781 -93.429688 338.765625 -118.179688 338.765625 -149.429688 C 338.765625 -172.011719 325.152344 -190.882812 305.972656 -201.402344 C 314.015625 -207.28125 322.058594 -210.375 322.058594 -212.539062 C 322.058594 -213.46875 321.441406 -214.085938 320.820312 -214.085938 C 317.417969 -214.085938 310.613281 -208.210938 301.949219 -203.257812 C 288.335938 -209.757812 267.300781 -214.085938 245.644531 -214.085938 C 231.722656 -214.085938 215.945312 -212.539062 204.496094 -209.757812 C 196.761719 -216.5625 180.054688 -222.75 164.277344 -222.75 C 98.691406 -222.75 69.609375 -156.542969 69.609375 -148.808594 C 69.609375 -148.5 69.917969 -147.261719 70.847656 -147.261719 Z M 98.691406 -109.519531 C 98.691406 -147.882812 152.832031 -195.835938 203.257812 -206.042969 C 209.757812 -198.929688 210.683594 -188.71875 210.683594 -177.582031 C 210.683594 -134.886719 165.515625 -79.199219 125.296875 -79.199219 C 109.210938 -79.199219 98.691406 -90.335938 98.691406 -109.519531 Z M 98.691406 -109.519531 "/></g></g></g><g fill="#616041" fill-opacity="1"><g transform="translate(302.014741, 641.20356)"><g><path d="M 131.792969 -71.15625 C 131.792969 -79.820312 125.605469 -86.007812 116.324219 -86.007812 C 99.617188 -86.007812 79.820312 -73.941406 62.804688 -56.617188 C 60.328125 -54.140625 51.355469 -44.550781 51.355469 -43.3125 C 51.355469 -42.695312 52.59375 -41.457031 52.902344 -41.457031 C 53.210938 -41.457031 53.523438 -42.074219 53.832031 -42.382812 C 53.832031 -42.382812 54.140625 -42.382812 54.140625 -41.765625 C 54.140625 -40.835938 53.210938 -37.433594 53.210938 -32.792969 C 53.210938 -16.707031 60.636719 0.308594 77.652344 0 C 92.195312 -0.308594 104.257812 -6.1875 119.726562 -20.417969 C 129.007812 -28.773438 141.074219 -43.003906 141.074219 -44.242188 C 141.074219 -45.476562 140.457031 -46.097656 139.527344 -46.097656 C 138.289062 -46.097656 135.195312 -40.527344 123.132812 -28.152344 C 104.257812 -9.589844 88.171875 -3.402344 79.820312 -3.710938 C 70.226562 -4.023438 66.824219 -8.042969 66.824219 -20.109375 C 66.824219 -23.511719 67.445312 -26.914062 68.0625 -30.320312 C 86.316406 -34.03125 131.792969 -47.953125 131.792969 -71.15625 Z M 116.324219 -82.292969 C 120.347656 -82.292969 122.511719 -80.4375 122.511719 -76.414062 C 122.511719 -54.140625 89.71875 -36.507812 69.300781 -34.03125 C 73.632812 -51.355469 99.929688 -82.292969 116.324219 -82.292969 Z M 116.324219 -82.292969 "/></g></g></g><g fill="#616041" fill-opacity="1"><g transform="translate(388.020863, 641.20356)"><g><path d="M 76.726562 -1.855469 C 86.007812 -16.398438 142.003906 -82.292969 156.851562 -82.292969 C 159.636719 -82.292969 161.183594 -80.746094 161.183594 -78.582031 C 161.183594 -70.226562 127.773438 -44.550781 127.773438 -19.800781 C 127.773438 -8.664062 132.101562 0 141.382812 0 C 148.5 0 159.328125 -8.351562 172.941406 -21.964844 C 176.960938 -25.988281 192.429688 -43.003906 192.429688 -44.550781 C 192.429688 -45.167969 192.121094 -46.097656 191.195312 -46.097656 C 189.335938 -46.097656 190.574219 -45.167969 174.796875 -28.460938 C 162.113281 -14.851562 149.117188 -3.710938 142.003906 -3.710938 C 138.910156 -3.710938 137.054688 -6.804688 137.054688 -9.898438 C 137.054688 -14.851562 143.859375 -25.988281 157.78125 -44.859375 C 163.039062 -51.976562 169.226562 -60.945312 169.226562 -71.464844 C 169.226562 -77.960938 165.824219 -86.007812 158.089844 -86.007812 C 142.3125 -86.007812 106.734375 -42.695312 94.667969 -31.246094 L 94.050781 -31.867188 C 100.855469 -40.835938 113.539062 -58.472656 113.539062 -70.847656 C 113.539062 -80.128906 110.136719 -86.007812 102.09375 -86.007812 C 90.027344 -86.007812 77.652344 -74.867188 62.804688 -57.542969 C 58.78125 -52.902344 51.046875 -44.242188 51.046875 -43.3125 C 51.046875 -42.074219 51.664062 -41.457031 52.59375 -41.457031 C 53.832031 -41.457031 53.523438 -42.695312 68.0625 -58.472656 C 83.839844 -75.796875 92.195312 -82.292969 100.855469 -82.292969 C 103.332031 -82.292969 105.496094 -80.746094 105.496094 -77.652344 C 105.496094 -68.0625 61.875 -11.445312 55.996094 0 Z M 76.726562 -1.855469 "/></g></g></g><g fill="#616041" fill-opacity="1"><g transform="translate(525.383146, 641.20356)"><g><path d="M 72.394531 0 C 84.148438 0 101.476562 -17.632812 110.757812 -26.914062 C 110.757812 -25.367188 110.445312 -23.511719 110.445312 -21.347656 C 110.445312 -4.332031 115.707031 0 124.058594 0 C 132.414062 0 144.167969 -9.589844 158.398438 -24.441406 C 165.515625 -32.175781 175.414062 -43.3125 175.414062 -43.929688 C 175.414062 -44.550781 174.796875 -45.789062 173.558594 -45.789062 C 172.941406 -45.789062 172.632812 -45.167969 168.917969 -40.835938 C 150.976562 -19.800781 134.269531 -3.710938 124.988281 -3.710938 C 120.964844 -3.710938 119.726562 -5.570312 119.726562 -8.042969 C 119.726562 -18.871094 155.617188 -73.941406 164.277344 -84.460938 L 149.429688 -83.839844 C 142.929688 -83.53125 143.550781 -79.507812 132.414062 -61.875 L 131.792969 -62.492188 C 132.414062 -64.351562 132.722656 -67.445312 132.722656 -70.847656 C 132.722656 -79.199219 128.699219 -86.007812 119.417969 -86.007812 C 98.070312 -86.007812 73.011719 -70.226562 56.304688 -49.808594 C 52.285156 -44.859375 51.355469 -44.550781 51.355469 -43.3125 C 51.355469 -42.695312 51.976562 -41.765625 52.59375 -41.765625 C 53.210938 -41.765625 53.832031 -42.695312 54.449219 -42.695312 C 53.523438 -37.742188 52.902344 -33.101562 52.902344 -28.152344 C 52.902344 -14.230469 56.617188 0 72.394531 0 Z M 65.277344 -13.613281 C 65.277344 -35.886719 94.359375 -82.292969 119.417969 -82.292969 C 125.914062 -82.292969 129.007812 -77.34375 129.007812 -71.15625 C 129.007812 -48.261719 90.335938 -3.710938 72.394531 -3.710938 C 67.445312 -3.710938 65.277344 -7.734375 65.277344 -13.613281 Z M 65.277344 -13.613281 "/></g></g></g><g clip-path="url(#1fb4372bb0)"><path fill="#616041" d="M 572.414062 519.4375 C 572.179688 521.347656 570.972656 522.679688 569.941406 524.105469 C 567.96875 526.8125 565.933594 529.441406 563.523438 531.792969 C 560.5 534.734375 556.929688 536.644531 552.8125 537.429688 C 550.949219 537.789062 549.039062 538.007812 547.144531 537.992188 C 543.339844 537.976562 539.675781 537.097656 536.152344 535.597656 C 532.550781 534.0625 529.34375 531.824219 525.992188 529.851562 C 522.328125 527.6875 518.507812 525.902344 514.3125 525.089844 C 509.003906 524.058594 504.117188 525.011719 499.765625 528.394531 C 497.886719 529.851562 496.085938 531.351562 494.960938 533.511719 C 494.742188 533.921875 494.550781 534.328125 494.191406 534.71875 C 494.175781 534.578125 494.097656 534.421875 494.128906 534.28125 C 494.789062 531.996094 495.257812 529.628906 496.179688 527.4375 C 497.808594 523.570312 500.234375 520.253906 504.070312 518.230469 C 506.0625 517.183594 508.238281 516.683594 510.429688 516.289062 C 512.152344 515.976562 513.90625 515.726562 515.660156 515.710938 C 519.464844 515.695312 523.109375 516.589844 526.507812 518.246094 C 530.125 520.015625 533.664062 521.957031 537.234375 523.804688 C 540.914062 525.714844 544.8125 526.984375 548.867188 527.8125 C 551.433594 528.332031 554.019531 528.457031 556.617188 528.347656 C 558.449219 528.269531 560.1875 527.640625 561.675781 526.609375 C 564.132812 524.902344 566.480469 523.039062 568.84375 521.191406 C 569.925781 520.378906 570.988281 519.625 572.414062 519.4375 Z M 572.414062 519.4375 " fill-opacity="1" fill-rule="nonzero"/></g><g clip-path="url(#81ce0362ba)"><g clip-path="url(#1e60eb72c1)"><g clip-path="url(#c03ce65738)"><path fill="#616041" d="M 351.285156 212.257812 L 370.183594 186.730469 L 375.433594 201.503906 L 355.242188 223.390625 Z M 351.285156 212.257812 " fill-opacity="1" fill-rule="nonzero"/></g></g></g></svg>