<svg xmlns="http://www.w3.org/2000/svg" xmlns:xlink="http://www.w3.org/1999/xlink" width="600" zoomAndPan="magnify" viewBox="0 0 450 299.999988" height="400" preserveAspectRatio="xMidYMid meet" version="1.0"><defs><clipPath id="18674f8804"><path d="M 377 4.351562 L 438 4.351562 L 438 61 L 377 61 Z M 377 4.351562 " clip-rule="nonzero"/></clipPath><clipPath id="aa19cd9b42"><path d="M 10.878906 281 L 55 281 L 55 295.351562 L 10.878906 295.351562 Z M 10.878906 281 " clip-rule="nonzero"/></clipPath></defs><g clip-path="url(#18674f8804)"><path fill="#333333" d="M 426.894531 55.449219 L 425.609375 47.320312 L 427.867188 45.957031 C 428.585938 45.523438 428.816406 44.582031 428.382812 43.863281 L 427.449219 42.320312 C 427.011719 41.601562 426.070312 41.371094 425.351562 41.804688 L 424.785156 42.148438 L 424.023438 37.375 L 425.203125 36.660156 C 425.921875 36.226562 426.152344 35.289062 425.71875 34.566406 L 424.785156 33.027344 C 424.445312 32.46875 423.820312 32.214844 423.214844 32.316406 L 422.660156 28.808594 C 432.003906 22.847656 439.152344 17.441406 437.582031 14.84375 C 436.015625 12.246094 427.902344 16.039062 418.257812 21.519531 L 415.414062 19.390625 C 415.785156 18.910156 415.855469 18.230469 415.519531 17.675781 L 414.582031 16.132812 C 414.148438 15.414062 413.207031 15.179688 412.488281 15.617188 L 411.308594 16.328125 L 407.4375 13.429688 L 408.007812 13.085938 C 408.726562 12.652344 408.957031 11.714844 408.523438 10.996094 L 407.589844 9.453125 C 407.152344 8.734375 406.210938 8.5 405.492188 8.9375 L 403.234375 10.296875 L 396.632812 5.363281 C 395.53125 4.539062 394.097656 4.453125 393.011719 5.15625 L 390.621094 6.691406 C 390.097656 7.027344 390.066406 7.816406 390.574219 8.257812 L 397.015625 14.925781 C 396.257812 15.890625 395.734375 16.890625 396.066406 17.449219 C 396.476562 18.132812 398.109375 17.976562 399.59375 17.597656 L 403.78125 21.929688 C 403.160156 22.796875 402.765625 23.640625 403.058594 24.140625 C 403.433594 24.761719 404.796875 24.691406 406.15625 24.390625 L 408.777344 27.105469 C 408.417969 27.320312 408.0625 27.535156 407.703125 27.75 C 400.773438 31.921875 394.359375 36.445312 389.863281 40.140625 L 389.875 40.128906 C 389.875 40.128906 387.753906 39.097656 385.371094 37.890625 C 383.988281 37.195312 380.390625 35.59375 379.722656 36.109375 L 378.105469 37.367188 C 377.8125 37.59375 377.761719 38.007812 377.988281 38.296875 L 384.542969 45.15625 C 383.660156 46.222656 383.257812 47.03125 383.507812 47.441406 C 383.757812 47.855469 384.65625 47.878906 386.015625 47.59375 L 389.035156 56.582031 C 389.1875 56.917969 389.582031 57.0625 389.910156 56.914062 L 391.78125 56.066406 C 392.546875 55.71875 392.8125 51.785156 392.84375 50.242188 C 392.890625 47.574219 392.964844 45.214844 392.964844 45.214844 L 392.953125 45.222656 C 398.316406 42.972656 405.320312 39.417969 412.25 35.242188 C 412.605469 35.027344 412.964844 34.8125 413.316406 34.589844 L 414.496094 38.175781 C 413.601562 39.238281 412.898438 40.40625 413.277344 41.023438 C 413.574219 41.515625 414.515625 41.5625 415.566406 41.417969 L 417.445312 47.136719 C 416.414062 48.273438 415.519531 49.640625 415.929688 50.324219 C 416.265625 50.882812 417.398438 50.882812 418.605469 50.660156 L 421.507812 59.46875 C 421.667969 60.121094 422.375 60.460938 422.921875 60.160156 L 425.398438 58.761719 C 426.519531 58.117188 427.109375 56.8125 426.894531 55.449219 Z M 426.894531 55.449219 " fill-opacity="1" fill-rule="nonzero"/></g><g clip-path="url(#aa19cd9b42)"><path fill="#333333" d="M 32.617188 295.289062 C 20.425781 295.289062 10.878906 292.191406 10.878906 288.238281 C 10.878906 284.289062 20.425781 281.191406 32.617188 281.191406 C 44.808594 281.191406 54.359375 284.289062 54.359375 288.238281 C 54.359375 292.191406 44.808594 295.289062 32.617188 295.289062 Z M 32.617188 283.742188 C 23.886719 283.742188 16.507812 285.800781 16.507812 288.230469 C 16.507812 290.667969 23.886719 292.726562 32.617188 292.726562 C 41.347656 292.726562 48.726562 290.667969 48.726562 288.230469 C 48.726562 285.800781 41.347656 283.742188 32.617188 283.742188 Z M 32.617188 283.742188 " fill-opacity="1" fill-rule="nonzero"/></g><path fill="#333333" d="M 39.5625 288.230469 C 39.5625 288.359375 39.515625 288.488281 39.429688 288.613281 C 39.339844 288.738281 39.207031 288.859375 39.03125 288.980469 C 38.859375 289.097656 38.644531 289.210938 38.390625 289.316406 C 38.136719 289.421875 37.851562 289.523438 37.527344 289.613281 C 37.207031 289.703125 36.855469 289.785156 36.476562 289.855469 C 36.097656 289.925781 35.695312 289.988281 35.273438 290.035156 C 34.855469 290.085938 34.421875 290.121094 33.972656 290.148438 C 33.527344 290.171875 33.074219 290.183594 32.617188 290.183594 C 32.164062 290.183594 31.710938 290.171875 31.265625 290.148438 C 30.816406 290.121094 30.382812 290.085938 29.960938 290.035156 C 29.539062 289.988281 29.140625 289.925781 28.761719 289.855469 C 28.382812 289.785156 28.03125 289.703125 27.707031 289.613281 C 27.386719 289.523438 27.097656 289.421875 26.84375 289.316406 C 26.59375 289.210938 26.378906 289.097656 26.203125 288.980469 C 26.03125 288.859375 25.898438 288.738281 25.808594 288.613281 C 25.71875 288.488281 25.675781 288.359375 25.675781 288.230469 C 25.675781 288.101562 25.71875 287.976562 25.808594 287.851562 C 25.898438 287.722656 26.03125 287.601562 26.203125 287.484375 C 26.378906 287.363281 26.59375 287.253906 26.84375 287.144531 C 27.097656 287.039062 27.386719 286.941406 27.707031 286.847656 C 28.03125 286.757812 28.382812 286.675781 28.761719 286.605469 C 29.140625 286.535156 29.539062 286.476562 29.960938 286.425781 C 30.382812 286.375 30.816406 286.339844 31.265625 286.3125 C 31.710938 286.289062 32.164062 286.277344 32.617188 286.277344 C 33.074219 286.277344 33.527344 286.289062 33.972656 286.3125 C 34.421875 286.339844 34.855469 286.375 35.273438 286.425781 C 35.695312 286.476562 36.097656 286.535156 36.476562 286.605469 C 36.855469 286.675781 37.207031 286.757812 37.527344 286.847656 C 37.851562 286.941406 38.136719 287.039062 38.390625 287.144531 C 38.644531 287.253906 38.859375 287.363281 39.03125 287.484375 C 39.207031 287.601562 39.339844 287.722656 39.429688 287.851562 C 39.515625 287.976562 39.5625 288.101562 39.5625 288.230469 Z M 39.5625 288.230469 " fill-opacity="1" fill-rule="nonzero"/><path fill="#333333" d="M 32.617188 225.28125 C 24.042969 225.28125 17.089844 232.226562 17.089844 240.792969 C 17.089844 249.359375 32.617188 276.964844 32.617188 276.964844 C 32.617188 276.964844 48.148438 249.359375 48.148438 240.792969 C 48.148438 232.226562 41.199219 225.28125 32.617188 225.28125 Z M 32.617188 246.324219 C 29.558594 246.324219 27.082031 243.851562 27.082031 240.792969 C 27.082031 237.738281 29.558594 235.261719 32.617188 235.261719 C 35.679688 235.261719 38.15625 237.738281 38.15625 240.792969 C 38.15625 243.851562 35.679688 246.324219 32.617188 246.324219 Z M 32.617188 246.324219 " fill-opacity="1" fill-rule="nonzero"/><path stroke-linecap="round" transform="matrix(0.58052, 0, 0, 0.579921, 10.877905, 4.667375)" fill="none" stroke-linejoin="round" d="M 82.719788 411.041858 C 84.590416 407.289998 86.447585 403.639176 88.311484 400.089391 " stroke="#333333" stroke-width="6.133" stroke-opacity="1" stroke-miterlimit="4"/><path fill="#333333" d="M 71.328125 216.695312 C 74.003906 212.292969 76.679688 208.171875 79.347656 204.328125 C 79.484375 204.132812 79.652344 203.972656 79.847656 203.84375 C 80.046875 203.71875 80.261719 203.632812 80.496094 203.589844 C 80.726562 203.546875 80.960938 203.550781 81.191406 203.601562 C 81.421875 203.652344 81.632812 203.746094 81.828125 203.878906 C 82.019531 204.015625 82.183594 204.179688 82.308594 204.378906 C 82.4375 204.578125 82.523438 204.792969 82.5625 205.023438 C 82.605469 205.257812 82.601562 205.488281 82.550781 205.71875 C 82.5 205.949219 82.410156 206.160156 82.273438 206.355469 C 79.644531 210.140625 77.011719 214.203125 74.371094 218.542969 C 74.246094 218.746094 74.089844 218.914062 73.898438 219.054688 C 73.710938 219.195312 73.5 219.292969 73.269531 219.347656 C 73.042969 219.402344 72.808594 219.414062 72.578125 219.378906 C 72.34375 219.339844 72.125 219.261719 71.925781 219.140625 C 71.722656 219.015625 71.550781 218.859375 71.414062 218.671875 C 71.273438 218.480469 71.175781 218.269531 71.117188 218.042969 C 71.0625 217.8125 71.054688 217.582031 71.089844 217.347656 C 71.125 217.117188 71.203125 216.898438 71.328125 216.695312 Z M 93.050781 187.023438 C 96.65625 183.109375 100.253906 179.707031 103.847656 176.816406 C 104.03125 176.671875 104.238281 176.5625 104.464844 176.496094 C 104.691406 176.429688 104.921875 176.410156 105.15625 176.433594 C 105.390625 176.460938 105.613281 176.53125 105.820312 176.644531 C 106.027344 176.757812 106.203125 176.90625 106.351562 177.089844 C 106.5 177.273438 106.605469 177.476562 106.671875 177.703125 C 106.738281 177.929688 106.757812 178.160156 106.734375 178.394531 C 106.707031 178.628906 106.640625 178.851562 106.527344 179.058594 C 106.414062 179.261719 106.265625 179.441406 106.082031 179.589844 C 102.625 182.367188 99.15625 185.648438 95.671875 189.429688 C 95.511719 189.605469 95.324219 189.742188 95.109375 189.839844 C 94.894531 189.9375 94.671875 189.992188 94.433594 190.003906 C 94.199219 190.011719 93.972656 189.976562 93.75 189.894531 C 93.527344 189.816406 93.328125 189.695312 93.15625 189.535156 C 92.980469 189.375 92.847656 189.1875 92.746094 188.976562 C 92.648438 188.761719 92.59375 188.535156 92.582031 188.300781 C 92.574219 188.066406 92.609375 187.835938 92.691406 187.613281 C 92.769531 187.394531 92.890625 187.195312 93.050781 187.023438 Z M 123.605469 166.0625 C 127.304688 165.011719 131.003906 164.503906 134.703125 164.535156 C 136.046875 164.546875 137.375 164.632812 138.6875 164.789062 C 138.921875 164.816406 139.140625 164.886719 139.347656 165 C 139.554688 165.117188 139.730469 165.265625 139.875 165.453125 C 140.019531 165.636719 140.125 165.84375 140.191406 166.070312 C 140.253906 166.296875 140.273438 166.527344 140.246094 166.761719 C 140.214844 166.996094 140.144531 167.214844 140.03125 167.421875 C 139.914062 167.628906 139.765625 167.804688 139.578125 167.949219 C 139.394531 168.097656 139.1875 168.199219 138.960938 168.265625 C 138.730469 168.328125 138.5 168.347656 138.265625 168.320312 C 137.085938 168.179688 135.886719 168.105469 134.667969 168.09375 C 131.3125 168.0625 127.949219 168.527344 124.578125 169.484375 C 124.351562 169.546875 124.121094 169.566406 123.886719 169.539062 C 123.652344 169.511719 123.429688 169.441406 123.226562 169.328125 C 123.019531 169.210938 122.84375 169.0625 122.695312 168.875 C 122.550781 168.691406 122.445312 168.484375 122.378906 168.257812 C 122.316406 168.03125 122.296875 167.800781 122.324219 167.566406 C 122.351562 167.332031 122.421875 167.113281 122.535156 166.90625 C 122.652344 166.699219 122.800781 166.523438 122.988281 166.378906 C 123.171875 166.230469 123.378906 166.125 123.605469 166.0625 Z M 159.472656 173.296875 C 160.089844 173.691406 161.019531 174.289062 162.257812 175.085938 C 166.378906 177.75 169.550781 179.671875 171.773438 180.851562 C 171.984375 180.960938 172.160156 181.105469 172.3125 181.289062 C 172.460938 181.46875 172.574219 181.671875 172.640625 181.898438 C 172.710938 182.125 172.734375 182.355469 172.710938 182.589844 C 172.691406 182.824219 172.625 183.046875 172.511719 183.253906 C 172.402344 183.460938 172.253906 183.640625 172.074219 183.792969 C 171.890625 183.941406 171.6875 184.050781 171.460938 184.121094 C 171.238281 184.191406 171.007812 184.214844 170.769531 184.191406 C 170.535156 184.167969 170.3125 184.101562 170.105469 183.992188 C 167.792969 182.765625 164.53125 180.792969 160.320312 178.074219 C 159.09375 177.28125 158.175781 176.6875 157.5625 176.300781 C 157.363281 176.175781 157.195312 176.015625 157.0625 175.820312 C 156.925781 175.628906 156.832031 175.417969 156.78125 175.1875 C 156.730469 174.957031 156.722656 174.726562 156.765625 174.492188 C 156.804688 174.261719 156.886719 174.046875 157.015625 173.847656 C 157.140625 173.648438 157.300781 173.480469 157.496094 173.34375 C 157.6875 173.207031 157.898438 173.117188 158.128906 173.0625 C 158.359375 173.011719 158.59375 173.007812 158.824219 173.046875 C 159.058594 173.089844 159.273438 173.171875 159.472656 173.296875 Z M 191.902344 186.535156 C 193.082031 186.585938 194.28125 186.597656 195.503906 186.5625 C 198.953125 186.464844 202.445312 186.03125 205.984375 185.261719 C 206.214844 185.210938 206.445312 185.207031 206.679688 185.25 C 206.910156 185.292969 207.128906 185.375 207.324219 185.503906 C 207.523438 185.632812 207.691406 185.792969 207.824219 185.984375 C 207.960938 186.179688 208.054688 186.390625 208.101562 186.621094 C 208.152344 186.851562 208.15625 187.082031 208.117188 187.316406 C 208.074219 187.546875 207.988281 187.761719 207.859375 187.960938 C 207.734375 188.160156 207.574219 188.328125 207.378906 188.460938 C 207.183594 188.59375 206.972656 188.6875 206.742188 188.738281 C 202.984375 189.554688 199.273438 190.015625 195.601562 190.117188 C 194.296875 190.152344 193.011719 190.144531 191.746094 190.089844 C 191.507812 190.078125 191.285156 190.023438 191.070312 189.925781 C 190.855469 189.824219 190.671875 189.6875 190.511719 189.515625 C 190.351562 189.339844 190.230469 189.140625 190.148438 188.921875 C 190.070312 188.699219 190.035156 188.46875 190.042969 188.234375 C 190.054688 188 190.109375 187.773438 190.210938 187.5625 C 190.308594 187.347656 190.445312 187.160156 190.621094 187 C 190.792969 186.84375 190.992188 186.722656 191.214844 186.640625 C 191.4375 186.5625 191.664062 186.527344 191.902344 186.535156 Z M 225.78125 177.484375 C 229.898438 175.109375 233.777344 172.363281 237.417969 169.25 C 237.59375 169.09375 237.796875 168.980469 238.023438 168.910156 C 238.246094 168.835938 238.476562 168.808594 238.710938 168.824219 C 238.945312 168.84375 239.167969 168.90625 239.378906 169.011719 C 239.589844 169.121094 239.773438 169.261719 239.925781 169.441406 C 240.078125 169.621094 240.191406 169.824219 240.265625 170.046875 C 240.339844 170.269531 240.367188 170.5 240.347656 170.734375 C 240.332031 170.972656 240.269531 171.195312 240.160156 171.402344 C 240.054688 171.613281 239.910156 171.796875 239.734375 171.949219 C 235.925781 175.207031 231.867188 178.078125 227.5625 180.566406 C 227.355469 180.683594 227.136719 180.757812 226.902344 180.789062 C 226.667969 180.820312 226.4375 180.804688 226.210938 180.742188 C 225.980469 180.683594 225.773438 180.582031 225.585938 180.4375 C 225.398438 180.292969 225.246094 180.121094 225.128906 179.914062 C 225.011719 179.710938 224.9375 179.492188 224.90625 179.257812 C 224.875 179.023438 224.890625 178.792969 224.949219 178.566406 C 225.011719 178.339844 225.113281 178.128906 225.257812 177.945312 C 225.402344 177.757812 225.574219 177.605469 225.78125 177.484375 Z M 251.453125 153.242188 C 253.265625 150.414062 254.800781 147.53125 256.070312 144.59375 C 256.65625 143.234375 257.175781 141.882812 257.632812 140.535156 C 257.707031 140.308594 257.820312 140.109375 257.976562 139.933594 C 258.132812 139.753906 258.316406 139.613281 258.527344 139.507812 C 258.738281 139.402344 258.960938 139.34375 259.199219 139.328125 C 259.433594 139.3125 259.664062 139.339844 259.886719 139.417969 C 260.109375 139.492188 260.3125 139.605469 260.488281 139.761719 C 260.667969 139.917969 260.808594 140.101562 260.914062 140.3125 C 261.019531 140.523438 261.078125 140.746094 261.09375 140.980469 C 261.109375 141.21875 261.082031 141.445312 261.003906 141.671875 C 260.519531 143.109375 259.964844 144.554688 259.339844 146.003906 C 257.996094 149.113281 256.367188 152.164062 254.457031 155.15625 C 254.328125 155.355469 254.167969 155.523438 253.976562 155.660156 C 253.78125 155.792969 253.570312 155.886719 253.339844 155.9375 C 253.109375 155.988281 252.878906 155.992188 252.644531 155.953125 C 252.414062 155.910156 252.195312 155.828125 251.996094 155.699219 C 251.796875 155.574219 251.632812 155.414062 251.496094 155.21875 C 251.359375 155.027344 251.269531 154.8125 251.21875 154.582031 C 251.167969 154.355469 251.160156 154.121094 251.203125 153.890625 C 251.242188 153.65625 251.328125 153.441406 251.453125 153.242188 Z M 259.824219 119.652344 C 259.679688 118.042969 259.394531 115.679688 258.976562 112.566406 C 258.53125 109.277344 258.242188 106.8125 258.109375 105.179688 C 258.089844 104.945312 258.117188 104.714844 258.191406 104.488281 C 258.261719 104.265625 258.375 104.0625 258.527344 103.882812 C 258.683594 103.703125 258.863281 103.5625 259.074219 103.453125 C 259.285156 103.347656 259.507812 103.28125 259.742188 103.265625 C 259.976562 103.246094 260.207031 103.273438 260.433594 103.34375 C 260.65625 103.417969 260.859375 103.53125 261.039062 103.683594 C 261.21875 103.835938 261.363281 104.015625 261.46875 104.226562 C 261.578125 104.4375 261.640625 104.660156 261.660156 104.894531 C 261.785156 106.464844 262.066406 108.863281 262.503906 112.089844 C 262.929688 115.253906 263.21875 117.667969 263.371094 119.332031 C 263.390625 119.566406 263.367188 119.796875 263.296875 120.023438 C 263.226562 120.246094 263.113281 120.449219 262.964844 120.632812 C 262.8125 120.8125 262.632812 120.957031 262.421875 121.066406 C 262.214844 121.175781 261.992188 121.242188 261.757812 121.261719 C 261.519531 121.285156 261.292969 121.261719 261.066406 121.191406 C 260.839844 121.121094 260.636719 121.007812 260.457031 120.859375 C 260.273438 120.707031 260.128906 120.527344 260.019531 120.316406 C 259.910156 120.109375 259.84375 119.886719 259.824219 119.652344 Z M 262.820312 83.175781 C 265.347656 79.046875 268.808594 75.332031 273.210938 72.035156 C 273.398438 71.894531 273.609375 71.792969 273.835938 71.738281 C 274.066406 71.679688 274.296875 71.664062 274.53125 71.699219 C 274.765625 71.730469 274.984375 71.808594 275.1875 71.929688 C 275.390625 72.050781 275.5625 72.203125 275.703125 72.390625 C 275.84375 72.582031 275.945312 72.789062 276.003906 73.019531 C 276.0625 73.246094 276.074219 73.476562 276.039062 73.710938 C 276.007812 73.945312 275.929688 74.164062 275.808594 74.363281 C 275.691406 74.566406 275.535156 74.742188 275.347656 74.882812 C 271.308594 77.90625 268.148438 81.289062 265.859375 85.03125 C 265.734375 85.234375 265.578125 85.402344 265.386719 85.542969 C 265.195312 85.679688 264.988281 85.777344 264.757812 85.832031 C 264.527344 85.886719 264.296875 85.898438 264.0625 85.859375 C 263.828125 85.824219 263.613281 85.746094 263.410156 85.621094 C 263.210938 85.5 263.039062 85.34375 262.902344 85.152344 C 262.761719 84.960938 262.664062 84.75 262.609375 84.523438 C 262.554688 84.292969 262.542969 84.0625 262.582031 83.828125 C 262.617188 83.59375 262.695312 83.378906 262.820312 83.175781 Z M 293.128906 61.945312 C 297.464844 60.441406 302.207031 59.113281 307.347656 57.953125 C 307.578125 57.902344 307.808594 57.898438 308.042969 57.9375 C 308.273438 57.976562 308.488281 58.058594 308.691406 58.1875 C 308.890625 58.3125 309.058594 58.472656 309.191406 58.664062 C 309.328125 58.855469 309.421875 59.070312 309.476562 59.296875 C 309.527344 59.527344 309.53125 59.761719 309.492188 59.992188 C 309.453125 60.226562 309.367188 60.441406 309.242188 60.640625 C 309.117188 60.839844 308.957031 61.007812 308.765625 61.144531 C 308.570312 61.277344 308.359375 61.371094 308.128906 61.425781 C 303.117188 62.550781 298.507812 63.847656 294.296875 65.304688 C 294.074219 65.382812 293.84375 65.414062 293.605469 65.402344 C 293.371094 65.386719 293.148438 65.328125 292.933594 65.226562 C 292.722656 65.121094 292.539062 64.984375 292.382812 64.808594 C 292.226562 64.628906 292.109375 64.429688 292.03125 64.207031 C 291.953125 63.984375 291.921875 63.757812 291.933594 63.519531 C 291.949219 63.285156 292.007812 63.0625 292.109375 62.851562 C 292.214844 62.636719 292.351562 62.453125 292.53125 62.296875 C 292.707031 62.140625 292.90625 62.023438 293.128906 61.945312 Z M 329.074219 54.359375 C 333.742188 53.816406 338.636719 53.375 343.761719 53.035156 C 343.996094 53.019531 344.226562 53.046875 344.449219 53.121094 C 344.671875 53.199219 344.875 53.3125 345.050781 53.46875 C 345.230469 53.625 345.371094 53.808594 345.476562 54.019531 C 345.578125 54.230469 345.640625 54.453125 345.65625 54.6875 C 345.671875 54.925781 345.640625 55.152344 345.566406 55.378906 C 345.492188 55.601562 345.375 55.800781 345.21875 55.976562 C 345.0625 56.15625 344.878906 56.296875 344.667969 56.402344 C 344.457031 56.507812 344.234375 56.566406 344 56.582031 C 338.929688 56.921875 334.09375 57.359375 329.484375 57.890625 C 329.25 57.917969 329.019531 57.898438 328.792969 57.835938 C 328.566406 57.769531 328.359375 57.664062 328.175781 57.519531 C 327.988281 57.371094 327.839844 57.195312 327.726562 56.992188 C 327.609375 56.785156 327.539062 56.5625 327.511719 56.328125 C 327.484375 56.097656 327.503906 55.863281 327.566406 55.636719 C 327.632812 55.410156 327.738281 55.207031 327.886719 55.019531 C 328.03125 54.835938 328.207031 54.6875 328.414062 54.570312 C 328.621094 54.457031 328.839844 54.386719 329.074219 54.359375 Z M 329.074219 54.359375 " fill-opacity="1" fill-rule="nonzero"/><path stroke-linecap="round" transform="matrix(0.58052, 0, 0, 0.579921, 10.877905, 4.667375)" fill="none" stroke-linejoin="round" d="M 611.057615 85.00052 C 615.068025 84.946633 619.172639 84.91969 623.357999 84.91969 " stroke="#333333" stroke-width="6.133" stroke-opacity="1" stroke-miterlimit="4"/></svg>