<svg xmlns="http://www.w3.org/2000/svg" xmlns:xlink="http://www.w3.org/1999/xlink" width="1080" zoomAndPan="magnify" viewBox="0 0 810 112.499997" height="150" preserveAspectRatio="xMidYMid meet" version="1.0"><defs><clipPath id="5784025fa5"><path d="M 33 51 L 77 51 L 77 61.605469 L 33 61.605469 Z M 33 51 " clip-rule="nonzero"/></clipPath><clipPath id="e52fa6d78b"><path d="M 733 50.40625 L 777 50.40625 L 777 61.605469 L 733 61.605469 Z M 733 50.40625 " clip-rule="nonzero"/></clipPath><clipPath id="f0ffa8d1f6"><path d="M 777 52 L 797.007812 52 L 797.007812 61 L 777 61 Z M 777 52 " clip-rule="nonzero"/></clipPath></defs><g clip-path="url(#5784025fa5)"><path fill="#dd8857" d="M 74.003906 53.425781 C 73.234375 53.425781 72.5625 53.738281 72.058594 54.253906 C 72.011719 54.191406 71.964844 54.144531 71.917969 54.082031 C 71.746094 53.863281 71.558594 53.660156 71.386719 53.457031 C 71.007812 53.046875 70.617188 52.640625 70.195312 52.246094 C 69.785156 51.855469 69.347656 51.496094 68.910156 51.148438 L 68.828125 51.085938 C 67.777344 51.699219 66.683594 52.246094 65.550781 52.71875 C 65.472656 52.75 65.410156 52.78125 65.332031 52.8125 L 65.113281 52.890625 L 64.675781 53.0625 C 64.675781 53.0625 64.535156 53.125 64.453125 53.140625 L 64.234375 53.21875 L 63.78125 53.375 C 63.484375 53.472656 63.167969 53.566406 62.871094 53.660156 L 62.417969 53.785156 C 62.261719 53.832031 62.101562 53.863281 61.960938 53.910156 C 59.5 54.523438 56.945312 54.789062 54.402344 54.695312 C 51.878906 54.601562 49.355469 54.191406 46.941406 53.488281 C 44.792969 52.859375 42.707031 52.027344 40.730469 51.007812 C 38.910156 52.042969 37.1875 53.265625 35.585938 54.617188 C 35.007812 55.101562 34.457031 55.601562 33.910156 56.121094 C 34.457031 56.636719 35.007812 57.140625 35.585938 57.625 C 37.1875 58.976562 38.910156 60.199219 40.730469 61.234375 C 42.707031 60.214844 44.792969 59.367188 46.941406 58.753906 C 49.355469 58.050781 51.863281 57.640625 54.402344 57.546875 C 56.929688 57.453125 59.484375 57.71875 61.960938 58.332031 C 62.117188 58.363281 62.277344 58.410156 62.417969 58.457031 L 62.871094 58.582031 C 63.167969 58.675781 63.484375 58.769531 63.78125 58.863281 L 64.234375 59.023438 L 64.453125 59.101562 C 64.453125 59.101562 64.613281 59.148438 64.675781 59.179688 L 65.113281 59.351562 L 65.332031 59.429688 C 65.332031 59.429688 65.472656 59.492188 65.550781 59.523438 C 66.683594 59.992188 67.777344 60.527344 68.828125 61.15625 C 68.859375 61.136719 68.875 61.105469 68.910156 61.089844 C 69.347656 60.746094 69.769531 60.386719 70.195312 59.992188 C 70.601562 59.601562 71.007812 59.210938 71.386719 58.785156 C 71.574219 58.582031 71.761719 58.363281 71.917969 58.160156 C 71.964844 58.097656 72.011719 58.050781 72.058594 57.988281 C 72.546875 58.488281 73.234375 58.816406 74.003906 58.816406 C 75.492188 58.816406 76.6875 57.609375 76.6875 56.136719 C 76.6875 54.664062 75.476562 53.457031 74.003906 53.457031 Z M 74.003906 53.425781 " fill-opacity="1" fill-rule="nonzero"/></g><path fill="#dd8857" d="M 31.792969 54.789062 C 31.402344 54.050781 31.054688 53.296875 30.773438 52.53125 C 30.585938 52.484375 30.398438 52.4375 30.195312 52.40625 C 28.703125 52.089844 27.058594 51.964844 25.285156 52.089844 C 23.53125 52.183594 21.664062 52.546875 19.75 53.125 C 17.523438 53.800781 15.234375 54.820312 13.007812 56.121094 C 15.234375 57.421875 17.523438 58.425781 19.75 59.117188 C 21.664062 59.695312 23.53125 60.039062 25.285156 60.152344 C 26.164062 60.214844 27.011719 60.199219 27.839844 60.152344 C 28.25 60.121094 28.65625 60.089844 29.050781 60.023438 C 29.238281 59.992188 29.441406 59.976562 29.628906 59.945312 C 29.816406 59.914062 30.003906 59.867188 30.195312 59.835938 C 30.398438 59.789062 30.585938 59.757812 30.773438 59.710938 C 31.054688 58.945312 31.402344 58.191406 31.792969 57.453125 C 31.980469 57.09375 32.183594 56.75 32.40625 56.417969 C 32.46875 56.324219 32.53125 56.230469 32.59375 56.136719 C 32.53125 56.042969 32.46875 55.949219 32.40625 55.855469 C 32.183594 55.507812 31.980469 55.164062 31.792969 54.804688 Z M 31.792969 54.789062 " fill-opacity="1" fill-rule="nonzero"/><g clip-path="url(#e52fa6d78b)"><path fill="#dd8857" d="M 769.285156 51.007812 C 767.308594 52.027344 765.222656 52.875 763.074219 53.488281 C 760.660156 54.191406 758.152344 54.601562 755.613281 54.695312 C 753.085938 54.789062 750.53125 54.523438 748.054688 53.910156 C 747.898438 53.878906 747.738281 53.832031 747.597656 53.785156 L 747.144531 53.660156 C 746.847656 53.566406 746.53125 53.472656 746.234375 53.375 L 745.78125 53.21875 L 745.558594 53.140625 C 745.558594 53.140625 745.402344 53.09375 745.339844 53.0625 L 744.902344 52.890625 L 744.683594 52.8125 C 744.683594 52.8125 744.542969 52.75 744.460938 52.71875 C 743.332031 52.246094 742.234375 51.714844 741.1875 51.085938 L 741.105469 51.148438 C 740.667969 51.496094 740.246094 51.855469 739.820312 52.246094 C 739.414062 52.640625 739.007812 53.03125 738.628906 53.457031 C 738.441406 53.660156 738.253906 53.878906 738.097656 54.082031 C 738.050781 54.144531 738.003906 54.191406 737.957031 54.253906 C 737.46875 53.753906 736.78125 53.425781 736.011719 53.425781 C 734.523438 53.425781 733.328125 54.632812 733.328125 56.105469 C 733.328125 57.578125 734.539062 58.785156 736.011719 58.785156 C 736.78125 58.785156 737.453125 58.472656 737.957031 57.957031 C 738.003906 58.019531 738.050781 58.066406 738.097656 58.128906 C 738.269531 58.347656 738.457031 58.550781 738.628906 58.753906 C 739.007812 59.164062 739.398438 59.570312 739.820312 59.960938 C 740.230469 60.355469 740.667969 60.714844 741.105469 61.058594 C 741.136719 61.074219 741.152344 61.105469 741.1875 61.121094 C 742.234375 60.511719 743.332031 59.960938 744.460938 59.492188 C 744.542969 59.460938 744.605469 59.429688 744.683594 59.398438 L 744.902344 59.320312 L 745.339844 59.148438 C 745.339844 59.148438 745.480469 59.085938 745.558594 59.070312 L 745.78125 58.992188 L 746.234375 58.832031 C 746.53125 58.738281 746.847656 58.644531 747.144531 58.550781 L 747.597656 58.425781 C 747.753906 58.378906 747.914062 58.347656 748.054688 58.300781 C 750.515625 57.6875 753.070312 57.421875 755.613281 57.515625 C 758.136719 57.609375 760.660156 58.019531 763.074219 58.722656 C 765.222656 59.351562 767.308594 60.183594 769.285156 61.203125 C 771.105469 60.167969 772.828125 58.960938 774.429688 57.59375 C 775.007812 57.109375 775.558594 56.605469 776.105469 56.089844 C 775.558594 55.570312 775.007812 55.070312 774.429688 54.585938 C 772.828125 53.234375 771.105469 52.011719 769.285156 50.976562 Z M 769.285156 51.007812 " fill-opacity="1" fill-rule="nonzero"/></g><g clip-path="url(#f0ffa8d1f6)"><path fill="#dd8857" d="M 790.265625 53.125 C 788.351562 52.546875 786.484375 52.199219 784.730469 52.089844 C 782.972656 51.964844 781.328125 52.089844 779.820312 52.40625 C 779.632812 52.4375 779.429688 52.484375 779.242188 52.53125 C 778.960938 53.296875 778.613281 54.050781 778.222656 54.789062 C 778.035156 55.148438 777.816406 55.492188 777.609375 55.839844 C 777.546875 55.933594 777.484375 56.027344 777.421875 56.121094 C 777.484375 56.214844 777.546875 56.308594 777.609375 56.402344 C 777.832031 56.75 778.035156 57.09375 778.222656 57.4375 C 778.613281 58.175781 778.960938 58.925781 779.242188 59.695312 C 779.429688 59.742188 779.632812 59.789062 779.820312 59.820312 C 780.011719 59.851562 780.199219 59.898438 780.386719 59.929688 C 780.574219 59.960938 780.777344 59.976562 780.964844 60.007812 C 781.359375 60.074219 781.765625 60.089844 782.175781 60.136719 C 783.003906 60.183594 783.851562 60.199219 784.730469 60.136719 C 786.484375 60.023438 788.351562 59.679688 790.265625 59.101562 C 792.492188 58.425781 794.78125 57.40625 797.007812 56.105469 C 794.78125 54.804688 792.492188 53.785156 790.265625 53.109375 Z M 790.265625 53.125 " fill-opacity="1" fill-rule="nonzero"/></g><path fill="#dd8857" d="M 728.84375 53.582031 C 727.808594 53.582031 726.917969 54.207031 726.523438 55.101562 L 718.824219 55.101562 C 718.464844 54.441406 717.757812 53.988281 716.945312 53.988281 C 716.128906 53.988281 715.421875 54.441406 715.0625 55.101562 L 94.921875 55.101562 C 94.5625 54.441406 93.855469 53.988281 93.039062 53.988281 C 92.226562 53.988281 91.519531 54.441406 91.160156 55.101562 L 83.460938 55.101562 C 83.066406 54.207031 82.171875 53.582031 81.140625 53.582031 C 79.742188 53.582031 78.597656 54.710938 78.597656 56.121094 C 78.597656 57.53125 79.726562 58.660156 81.140625 58.660156 C 82.171875 58.660156 83.066406 58.035156 83.460938 57.140625 L 91.160156 57.140625 C 91.519531 57.796875 92.226562 58.253906 93.039062 58.253906 C 93.855469 58.253906 94.5625 57.796875 94.921875 57.140625 L 715.078125 57.140625 C 715.4375 57.796875 716.144531 58.253906 716.960938 58.253906 C 717.773438 58.253906 718.480469 57.796875 718.839844 57.140625 L 726.539062 57.140625 C 726.933594 58.035156 727.828125 58.660156 728.859375 58.660156 C 730.257812 58.660156 731.402344 57.53125 731.402344 56.121094 C 731.402344 54.710938 730.273438 53.582031 728.859375 53.582031 Z M 728.84375 53.582031 " fill-opacity="1" fill-rule="nonzero"/></svg>