<svg xmlns="http://www.w3.org/2000/svg" xmlns:xlink="http://www.w3.org/1999/xlink" width="1280" zoomAndPan="magnify" viewBox="0 0 960 599.999999" height="800" preserveAspectRatio="xMidYMid meet" version="1.0"><defs><clipPath id="213c1a3945"><path d="M 204.640625 36.882812 L 755.140625 36.882812 L 755.140625 587.382812 L 204.640625 587.382812 Z M 204.640625 36.882812 " clip-rule="nonzero"/></clipPath><clipPath id="839c19b34c"><path d="M 224 36.882812 L 749 36.882812 L 749 587.382812 L 224 587.382812 Z M 224 36.882812 " clip-rule="nonzero"/></clipPath><clipPath id="3aaf209bd4"><path d="M 539 36.882812 L 726 36.882812 L 726 374 L 539 374 Z M 539 36.882812 " clip-rule="nonzero"/></clipPath><clipPath id="da1a8437af"><path d="M 620 36.882812 L 726 36.882812 L 726 374 L 620 374 Z M 620 36.882812 " clip-rule="nonzero"/></clipPath></defs><g clip-path="url(#213c1a3945)"><path fill="#edeeee" d="M 755.140625 312.132812 C 755.140625 316.636719 755.027344 321.140625 754.808594 325.636719 C 754.585938 330.136719 754.257812 334.628906 753.8125 339.113281 C 753.371094 343.59375 752.820312 348.0625 752.160156 352.519531 C 751.5 356.976562 750.730469 361.414062 749.851562 365.832031 C 748.972656 370.25 747.984375 374.644531 746.890625 379.011719 C 745.796875 383.382812 744.59375 387.722656 743.289062 392.035156 C 741.980469 396.34375 740.566406 400.621094 739.050781 404.859375 C 737.53125 409.101562 735.910156 413.304688 734.1875 417.464844 C 732.464844 421.628906 730.640625 425.746094 728.710938 429.816406 C 726.785156 433.890625 724.761719 437.910156 722.636719 441.882812 C 720.515625 445.855469 718.296875 449.773438 715.980469 453.640625 C 713.664062 457.503906 711.253906 461.308594 708.75 465.054688 C 706.25 468.796875 703.65625 472.480469 700.972656 476.097656 C 698.289062 479.714844 695.519531 483.265625 692.660156 486.75 C 689.804688 490.230469 686.863281 493.640625 683.835938 496.980469 C 680.8125 500.316406 677.707031 503.578125 674.519531 506.761719 C 671.335938 509.949219 668.074219 513.054688 664.738281 516.078125 C 661.398438 519.105469 657.988281 522.046875 654.507812 524.902344 C 651.023438 527.761719 647.472656 530.53125 643.855469 533.214844 C 640.238281 535.898438 636.554688 538.492188 632.808594 540.996094 C 629.066406 543.496094 625.261719 545.90625 621.398438 548.222656 C 617.53125 550.539062 613.613281 552.757812 609.640625 554.882812 C 605.667969 557.003906 601.648438 559.03125 597.574219 560.957031 C 593.503906 562.882812 589.386719 564.707031 585.222656 566.429688 C 581.0625 568.152344 576.859375 569.773438 572.617188 571.292969 C 568.378906 572.808594 564.101562 574.222656 559.789062 575.53125 C 555.480469 576.835938 551.140625 578.039062 546.769531 579.132812 C 542.402344 580.226562 538.007812 581.214844 533.589844 582.09375 C 529.171875 582.972656 524.734375 583.742188 520.277344 584.402344 C 515.820312 585.0625 511.351562 585.617188 506.867188 586.058594 C 502.386719 586.5 497.894531 586.828125 493.394531 587.050781 C 488.898438 587.273438 484.394531 587.382812 479.890625 587.382812 C 475.386719 587.382812 470.882812 587.273438 466.382812 587.050781 C 461.882812 586.828125 457.394531 586.5 452.910156 586.058594 C 448.425781 585.617188 443.957031 585.0625 439.503906 584.402344 C 435.046875 583.742188 430.609375 582.972656 426.191406 582.09375 C 421.773438 581.214844 417.378906 580.226562 413.007812 579.132812 C 408.640625 578.039062 404.300781 576.835938 399.988281 575.53125 C 395.679688 574.222656 391.402344 572.808594 387.160156 571.292969 C 382.917969 569.773438 378.71875 568.152344 374.554688 566.429688 C 370.394531 564.707031 366.277344 562.882812 362.207031 560.957031 C 358.132812 559.03125 354.109375 557.003906 350.136719 554.882812 C 346.164062 552.757812 342.246094 550.539062 338.382812 548.222656 C 334.519531 545.90625 330.714844 543.496094 326.96875 540.996094 C 323.222656 538.492188 319.542969 535.898438 315.921875 533.214844 C 312.304688 530.53125 308.753906 527.761719 305.273438 524.902344 C 301.789062 522.046875 298.382812 519.105469 295.042969 516.078125 C 291.707031 513.054688 288.445312 509.949219 285.257812 506.761719 C 282.074219 503.578125 278.96875 500.316406 275.941406 496.980469 C 272.917969 493.640625 269.976562 490.230469 267.117188 486.75 C 264.261719 483.265625 261.492188 479.714844 258.808594 476.097656 C 256.125 472.480469 253.53125 468.796875 251.027344 465.054688 C 248.523438 461.308594 246.117188 457.503906 243.800781 453.640625 C 241.484375 449.773438 239.265625 445.855469 237.140625 441.882812 C 235.015625 437.910156 232.992188 433.890625 231.066406 429.816406 C 229.140625 425.746094 227.316406 421.628906 225.59375 417.464844 C 223.867188 413.304688 222.246094 409.101562 220.730469 404.859375 C 219.210938 400.621094 217.800781 396.34375 216.492188 392.035156 C 215.183594 387.722656 213.984375 383.382812 212.890625 379.011719 C 211.792969 374.644531 210.808594 370.25 209.929688 365.832031 C 209.050781 361.414062 208.28125 356.976562 207.617188 352.519531 C 206.957031 348.0625 206.40625 343.59375 205.964844 339.113281 C 205.523438 334.628906 205.191406 330.136719 204.972656 325.636719 C 204.75 321.140625 204.640625 316.636719 204.640625 312.132812 C 204.640625 307.628906 204.75 303.125 204.972656 298.625 C 205.191406 294.128906 205.523438 289.636719 205.964844 285.152344 C 206.40625 280.671875 206.957031 276.199219 207.617188 271.746094 C 208.28125 267.289062 209.050781 262.851562 209.929688 258.433594 C 210.808594 254.015625 211.792969 249.621094 212.890625 245.253906 C 213.984375 240.882812 215.183594 236.542969 216.492188 232.230469 C 217.800781 227.921875 219.210938 223.644531 220.730469 219.402344 C 222.246094 215.160156 223.867188 210.960938 225.59375 206.796875 C 227.316406 202.636719 229.140625 198.519531 231.066406 194.449219 C 232.992188 190.375 235.015625 186.351562 237.140625 182.378906 C 239.265625 178.40625 241.484375 174.488281 243.800781 170.625 C 246.117188 166.761719 248.523438 162.957031 251.027344 159.210938 C 253.53125 155.464844 256.125 151.785156 258.808594 148.167969 C 261.492188 144.546875 264.261719 140.996094 267.117188 137.515625 C 269.976562 134.035156 272.917969 130.625 275.941406 127.285156 C 278.96875 123.949219 282.074219 120.6875 285.257812 117.5 C 288.445312 114.316406 291.707031 111.210938 295.042969 108.1875 C 298.382812 105.160156 301.789062 102.21875 305.273438 99.359375 C 308.753906 96.503906 312.304688 93.734375 315.921875 91.050781 C 319.542969 88.367188 323.222656 85.773438 326.96875 83.269531 C 330.714844 80.769531 334.519531 78.359375 338.382812 76.042969 C 342.246094 73.726562 346.164062 71.507812 350.136719 69.382812 C 354.109375 67.261719 358.132812 65.234375 362.207031 63.308594 C 366.277344 61.382812 370.394531 59.558594 374.554688 57.835938 C 378.71875 56.109375 382.917969 54.488281 387.160156 52.972656 C 391.402344 51.453125 395.679688 50.042969 399.988281 48.734375 C 404.300781 47.425781 408.640625 46.226562 413.007812 45.132812 C 417.378906 44.035156 421.773438 43.050781 426.191406 42.171875 C 430.609375 41.292969 435.046875 40.523438 439.503906 39.863281 C 443.957031 39.199219 448.425781 38.648438 452.910156 38.207031 C 457.394531 37.765625 461.882812 37.433594 466.382812 37.214844 C 470.882812 36.992188 475.386719 36.882812 479.890625 36.882812 C 484.394531 36.882812 488.898438 36.992188 493.394531 37.214844 C 497.894531 37.433594 502.386719 37.765625 506.867188 38.207031 C 511.351562 38.648438 515.820312 39.199219 520.277344 39.863281 C 524.734375 40.523438 529.171875 41.292969 533.589844 42.171875 C 538.007812 43.050781 542.402344 44.035156 546.769531 45.132812 C 551.140625 46.226562 555.480469 47.425781 559.789062 48.734375 C 564.101562 50.042969 568.378906 51.453125 572.617188 52.972656 C 576.859375 54.488281 581.0625 56.109375 585.222656 57.835938 C 589.386719 59.558594 593.503906 61.382812 597.574219 63.308594 C 601.648438 65.234375 605.667969 67.261719 609.640625 69.382812 C 613.613281 71.507812 617.53125 73.726562 621.398438 76.042969 C 625.261719 78.359375 629.066406 80.769531 632.808594 83.269531 C 636.554688 85.773438 640.238281 88.367188 643.855469 91.050781 C 647.472656 93.734375 651.023438 96.503906 654.507812 99.359375 C 657.988281 102.21875 661.398438 105.160156 664.738281 108.1875 C 668.074219 111.210938 671.335938 114.316406 674.519531 117.5 C 677.707031 120.6875 680.8125 123.949219 683.835938 127.285156 C 686.863281 130.625 689.804688 134.035156 692.660156 137.515625 C 695.519531 140.996094 698.289062 144.546875 700.972656 148.167969 C 703.65625 151.785156 706.25 155.464844 708.75 159.210938 C 711.253906 162.957031 713.664062 166.761719 715.980469 170.625 C 718.296875 174.488281 720.515625 178.40625 722.636719 182.378906 C 724.761719 186.351562 726.785156 190.375 728.710938 194.449219 C 730.640625 198.519531 732.464844 202.636719 734.1875 206.796875 C 735.910156 210.960938 737.53125 215.160156 739.050781 219.402344 C 740.566406 223.644531 741.980469 227.921875 743.289062 232.230469 C 744.59375 236.542969 745.796875 240.882812 746.890625 245.253906 C 747.984375 249.621094 748.972656 254.015625 749.851562 258.433594 C 750.730469 262.851562 751.5 267.289062 752.160156 271.746094 C 752.820312 276.199219 753.371094 280.671875 753.8125 285.152344 C 754.257812 289.636719 754.585938 294.128906 754.808594 298.625 C 755.027344 303.125 755.140625 307.628906 755.140625 312.132812 Z M 755.140625 312.132812 " fill-opacity="1" fill-rule="nonzero"/></g><g clip-path="url(#839c19b34c)"><path fill="#d2d7dc" d="M 748.589844 252.335938 L 711.8125 194.429688 L 630.859375 240.515625 L 737.699219 408.664062 C 734.59375 416.941406 731.109375 425.042969 727.261719 432.914062 L 673.605469 348.460938 L 588.242188 402.695312 L 642.796875 488.585938 L 648.648438 497.777344 L 639.441406 503.644531 L 511.195312 585.582031 C 500.914062 586.742188 490.476562 587.367188 479.890625 587.367188 C 476 587.367188 472.136719 587.265625 468.289062 587.105469 L 618.53125 491.066406 L 569.828125 414.398438 L 534.90625 436.585938 L 525.703125 442.4375 L 519.851562 433.234375 L 472.46875 358.65625 L 490.882812 346.953125 L 532.410156 412.324219 L 558.125 395.988281 L 538.699219 365.421875 L 557.125 353.71875 L 576.539062 384.285156 L 661.902344 330.050781 L 524.480469 113.769531 L 375.3125 198.699219 L 436.894531 306.847656 L 442.28125 316.328125 L 432.828125 321.714844 L 357.84375 364.390625 L 402.261719 434.320312 L 408.113281 443.527344 L 398.910156 449.378906 L 317.332031 501.203125 L 305.628906 482.792969 L 378 436.820312 L 338.867188 375.210938 L 233.753906 435.425781 C 230.5 428.933594 227.496094 422.300781 224.734375 415.519531 L 412.574219 308.167969 L 351.007812 200.019531 L 345.605469 190.539062 L 355.058594 185.152344 L 512.792969 95.355469 L 475.664062 36.941406 C 477.074219 36.910156 478.480469 36.882812 479.890625 36.882812 C 487.351562 36.882812 494.746094 37.1875 502.046875 37.769531 L 531.769531 84.554688 L 581.488281 56.253906 C 589.851562 59.578125 598.015625 63.296875 605.941406 67.390625 L 543.476562 102.964844 L 619.171875 222.105469 L 714.351562 167.914062 C 730.164062 193.574219 741.882812 222.003906 748.589844 252.335938 Z M 748.589844 252.335938 " fill-opacity="1" fill-rule="nonzero"/></g><path fill="#72cf7b" d="M 632.339844 324.589844 C 645.773438 324.589844 657.925781 330.035156 666.726562 338.835938 C 675.523438 347.636719 680.96875 359.789062 680.96875 373.21875 C 680.96875 386.636719 675.523438 398.804688 666.726562 407.589844 C 657.925781 416.390625 645.773438 421.835938 632.339844 421.835938 C 618.921875 421.835938 606.753906 416.390625 597.957031 407.589844 C 589.15625 398.804688 583.710938 386.636719 583.710938 373.21875 C 583.710938 359.789062 589.15625 347.636719 597.957031 338.835938 C 606.753906 330.035156 618.921875 324.589844 632.339844 324.589844 Z M 657.070312 348.476562 C 650.753906 342.160156 641.996094 338.238281 632.339844 338.238281 C 622.683594 338.238281 613.941406 342.160156 607.613281 348.476562 C 601.28125 354.808594 597.375 363.550781 597.375 373.21875 C 597.375 382.875 601.28125 391.617188 607.613281 397.949219 C 613.941406 404.277344 622.683594 408.183594 632.339844 408.183594 C 641.996094 408.183594 650.753906 404.277344 657.070312 397.949219 C 663.398438 391.617188 667.320312 382.875 667.320312 373.21875 C 667.320312 363.550781 663.398438 354.808594 657.070312 348.476562 Z M 657.070312 348.476562 " fill-opacity="1" fill-rule="nonzero"/><path fill="#72cf7b" d="M 645.378906 373.21875 C 645.378906 374.078125 645.296875 374.925781 645.128906 375.765625 C 644.960938 376.605469 644.714844 377.417969 644.386719 378.210938 C 644.058594 379 643.65625 379.753906 643.183594 380.464844 C 642.707031 381.175781 642.164062 381.835938 641.558594 382.441406 C 640.953125 383.046875 640.296875 383.585938 639.585938 384.0625 C 638.871094 384.539062 638.121094 384.9375 637.332031 385.265625 C 636.539062 385.59375 635.722656 385.839844 634.882812 386.007812 C 634.042969 386.175781 633.195312 386.257812 632.339844 386.257812 C 631.484375 386.257812 630.636719 386.175781 629.796875 386.007812 C 628.957031 385.839844 628.140625 385.59375 627.351562 385.265625 C 626.558594 384.9375 625.808594 384.539062 625.097656 384.0625 C 624.382812 383.585938 623.726562 383.046875 623.121094 382.441406 C 622.515625 381.835938 621.972656 381.175781 621.5 380.464844 C 621.023438 379.753906 620.621094 379 620.292969 378.210938 C 619.964844 377.417969 619.71875 376.605469 619.550781 375.765625 C 619.382812 374.925781 619.300781 374.078125 619.300781 373.21875 C 619.300781 372.363281 619.382812 371.515625 619.550781 370.675781 C 619.71875 369.835938 619.964844 369.019531 620.292969 368.230469 C 620.621094 367.4375 621.023438 366.6875 621.5 365.976562 C 621.972656 365.265625 622.515625 364.605469 623.121094 364 C 623.726562 363.394531 624.382812 362.855469 625.097656 362.378906 C 625.808594 361.902344 626.558594 361.5 627.351562 361.171875 C 628.140625 360.84375 628.957031 360.597656 629.796875 360.429688 C 630.636719 360.265625 631.484375 360.179688 632.339844 360.179688 C 633.195312 360.179688 634.042969 360.265625 634.882812 360.429688 C 635.722656 360.597656 636.539062 360.84375 637.332031 361.171875 C 638.121094 361.5 638.871094 361.902344 639.585938 362.378906 C 640.296875 362.855469 640.953125 363.394531 641.558594 364 C 642.164062 364.605469 642.707031 365.265625 643.183594 365.976562 C 643.65625 366.6875 644.058594 367.4375 644.386719 368.230469 C 644.714844 369.019531 644.960938 369.835938 645.128906 370.675781 C 645.296875 371.515625 645.378906 372.363281 645.378906 373.21875 Z M 645.378906 373.21875 " fill-opacity="1" fill-rule="nonzero"/><g clip-path="url(#3aaf209bd4)"><path fill="#ff576b" d="M 632.339844 36.882812 C 683.742188 36.882812 725.402344 78.542969 725.402344 129.945312 C 725.402344 189.421875 641.878906 272.113281 632.339844 373.21875 C 622.816406 272.113281 539.277344 189.421875 539.277344 129.945312 C 539.277344 78.542969 580.9375 36.882812 632.339844 36.882812 Z M 632.339844 36.882812 " fill-opacity="1" fill-rule="evenodd"/></g><g clip-path="url(#da1a8437af)"><path fill="#f34c60" d="M 632.339844 36.882812 C 683.742188 36.882812 725.402344 78.542969 725.402344 129.945312 C 725.402344 189.421875 641.878906 272.113281 632.339844 373.21875 C 625.847656 281.972656 702.605469 212.839844 701.371094 129.945312 C 700.660156 82.621094 665.941406 43.546875 620.316406 37.652344 C 624.253906 37.144531 628.273438 36.882812 632.339844 36.882812 Z M 632.339844 36.882812 " fill-opacity="1" fill-rule="evenodd"/></g><path fill="#ffffff" d="M 660.074219 129.945312 C 660.074219 130.851562 660.03125 131.757812 659.941406 132.664062 C 659.851562 133.566406 659.71875 134.464844 659.542969 135.355469 C 659.363281 136.246094 659.144531 137.125 658.878906 137.996094 C 658.617188 138.863281 658.3125 139.71875 657.964844 140.558594 C 657.617188 141.398438 657.226562 142.214844 656.800781 143.019531 C 656.371094 143.820312 655.90625 144.597656 655.398438 145.351562 C 654.894531 146.109375 654.355469 146.835938 653.777344 147.539062 C 653.203125 148.242188 652.59375 148.914062 651.953125 149.554688 C 651.308594 150.199219 650.636719 150.804688 649.933594 151.382812 C 649.230469 151.960938 648.503906 152.5 647.75 153.003906 C 646.992188 153.507812 646.214844 153.976562 645.414062 154.402344 C 644.613281 154.832031 643.792969 155.21875 642.953125 155.566406 C 642.113281 155.914062 641.261719 156.21875 640.390625 156.484375 C 639.523438 156.746094 638.640625 156.96875 637.75 157.144531 C 636.859375 157.324219 635.960938 157.457031 635.058594 157.542969 C 634.15625 157.632812 633.25 157.679688 632.339844 157.679688 C 631.433594 157.679688 630.527344 157.632812 629.621094 157.542969 C 628.71875 157.457031 627.820312 157.324219 626.929688 157.144531 C 626.039062 156.96875 625.160156 156.746094 624.289062 156.484375 C 623.421875 156.21875 622.566406 155.914062 621.726562 155.566406 C 620.886719 155.21875 620.066406 154.832031 619.265625 154.402344 C 618.464844 153.976562 617.6875 153.507812 616.933594 153.003906 C 616.175781 152.5 615.449219 151.960938 614.746094 151.382812 C 614.042969 150.804688 613.371094 150.199219 612.730469 149.554688 C 612.085938 148.914062 611.476562 148.242188 610.902344 147.539062 C 610.324219 146.835938 609.785156 146.109375 609.28125 145.351562 C 608.777344 144.597656 608.308594 143.820312 607.882812 143.019531 C 607.453125 142.214844 607.066406 141.398438 606.71875 140.558594 C 606.371094 139.71875 606.0625 138.863281 605.800781 137.996094 C 605.535156 137.125 605.316406 136.246094 605.140625 135.355469 C 604.960938 134.464844 604.828125 133.566406 604.738281 132.664062 C 604.652344 131.757812 604.605469 130.851562 604.605469 129.945312 C 604.605469 129.035156 604.652344 128.128906 604.738281 127.226562 C 604.828125 126.320312 604.960938 125.425781 605.140625 124.535156 C 605.316406 123.640625 605.535156 122.761719 605.800781 121.894531 C 606.0625 121.023438 606.371094 120.167969 606.71875 119.332031 C 607.066406 118.492188 607.453125 117.671875 607.882812 116.871094 C 608.308594 116.070312 608.777344 115.292969 609.28125 114.535156 C 609.785156 113.78125 610.324219 113.050781 610.902344 112.351562 C 611.476562 111.648438 612.085938 110.976562 612.730469 110.332031 C 613.371094 109.691406 614.042969 109.082031 614.746094 108.503906 C 615.449219 107.929688 616.175781 107.386719 616.933594 106.882812 C 617.6875 106.378906 618.464844 105.914062 619.265625 105.484375 C 620.066406 105.054688 620.886719 104.667969 621.726562 104.320312 C 622.566406 103.972656 623.421875 103.667969 624.289062 103.402344 C 625.160156 103.140625 626.039062 102.921875 626.929688 102.742188 C 627.820312 102.566406 628.71875 102.433594 629.621094 102.34375 C 630.527344 102.253906 631.433594 102.210938 632.339844 102.210938 C 633.25 102.210938 634.15625 102.253906 635.058594 102.34375 C 635.960938 102.433594 636.859375 102.566406 637.75 102.742188 C 638.640625 102.921875 639.523438 103.140625 640.390625 103.402344 C 641.261719 103.667969 642.113281 103.972656 642.953125 104.320312 C 643.792969 104.667969 644.613281 105.054688 645.414062 105.484375 C 646.214844 105.914062 646.992188 106.378906 647.75 106.882812 C 648.503906 107.386719 649.230469 107.929688 649.933594 108.503906 C 650.636719 109.082031 651.308594 109.691406 651.953125 110.332031 C 652.59375 110.976562 653.203125 111.648438 653.777344 112.351562 C 654.355469 113.050781 654.894531 113.78125 655.398438 114.535156 C 655.90625 115.292969 656.371094 116.070312 656.800781 116.871094 C 657.226562 117.671875 657.617188 118.492188 657.964844 119.332031 C 658.3125 120.167969 658.617188 121.023438 658.878906 121.894531 C 659.144531 122.761719 659.363281 123.640625 659.542969 124.535156 C 659.71875 125.425781 659.851562 126.320312 659.941406 127.226562 C 660.03125 128.128906 660.074219 129.035156 660.074219 129.945312 Z M 660.074219 129.945312 " fill-opacity="1" fill-rule="nonzero"/><path fill="#d2d7dc" d="M 235.160156 186.050781 L 295.769531 279.128906 L 278.679688 290.222656 L 225.085938 207.90625 C 228.132812 200.457031 231.488281 193.152344 235.160156 186.050781 Z M 235.160156 186.050781 " fill-opacity="1" fill-rule="nonzero"/></svg>