<svg xmlns="http://www.w3.org/2000/svg" xmlns:xlink="http://www.w3.org/1999/xlink" width="1080" zoomAndPan="magnify" viewBox="0 0 810 809.999993" height="1080" preserveAspectRatio="xMidYMid meet" version="1.0"><defs><g/></defs><g fill="#dd8857" fill-opacity="1"><g transform="translate(-34.260535, 769.012328)"><g><path d="M 670.5625 -721.53125 C 712.53125 -721.53125 747.335938 -709.367188 774.984375 -685.046875 C 802.640625 -660.734375 816.46875 -627.921875 816.46875 -586.609375 C 816.46875 -554.628906 807.804688 -526.8125 790.484375 -503.15625 C 773.160156 -479.507812 750.175781 -460.691406 721.53125 -446.703125 C 696.207031 -434.710938 646.90625 -417.390625 573.625 -394.734375 C 610.9375 -378.742188 638.414062 -355.925781 656.0625 -326.28125 C 673.71875 -296.632812 682.546875 -262.828125 682.546875 -224.859375 C 682.546875 -183.546875 670.21875 -144.566406 645.5625 -107.921875 C 620.914062 -71.285156 585.609375 -41.804688 539.640625 -19.484375 C 493.671875 2.828125 439.707031 13.984375 377.75 13.984375 C 319.789062 13.984375 265.992188 3.828125 216.359375 -16.484375 C 166.722656 -36.804688 127.25 -65.785156 97.9375 -103.421875 C 68.625 -141.066406 53.96875 -184.875 53.96875 -234.84375 C 53.96875 -278.8125 64.789062 -315.953125 86.4375 -346.265625 C 108.09375 -376.585938 132.910156 -399.578125 160.890625 -415.234375 C 188.867188 -430.890625 214.851562 -441.710938 238.84375 -447.703125 C 206.195312 -461.691406 181.210938 -480.34375 163.890625 -503.65625 C 146.566406 -526.976562 137.90625 -551.300781 137.90625 -576.625 C 137.90625 -598.601562 144.398438 -619.085938 157.390625 -638.078125 C 170.390625 -657.066406 189.710938 -672.390625 215.359375 -684.046875 C 241.003906 -695.710938 271.484375 -701.546875 306.796875 -701.546875 C 351.429688 -701.546875 386.078125 -691.550781 410.734375 -671.5625 C 422.722656 -661.5625 431.878906 -650.398438 438.203125 -638.078125 C 444.535156 -625.753906 447.703125 -613.929688 447.703125 -602.609375 C 447.703125 -586.617188 442.039062 -573.789062 430.71875 -564.125 C 419.394531 -554.46875 406.40625 -549.640625 391.75 -549.640625 C 377.75 -549.640625 365.585938 -554.132812 355.265625 -563.125 C 344.941406 -572.125 339.78125 -584.285156 339.78125 -599.609375 C 339.78125 -614.265625 344.773438 -626.753906 354.765625 -637.078125 C 364.753906 -647.410156 377.410156 -653.238281 392.734375 -654.5625 C 389.410156 -663.226562 380.914062 -670.722656 367.25 -677.046875 C 353.59375 -683.378906 336.773438 -686.546875 316.796875 -686.546875 C 282.148438 -686.546875 254.164062 -676.050781 232.84375 -655.0625 C 211.53125 -634.082031 200.875 -604.9375 200.875 -567.625 C 200.875 -522.988281 217.859375 -485.015625 251.828125 -453.703125 C 275.148438 -457.703125 295.804688 -459.703125 313.796875 -459.703125 C 325.785156 -459.703125 335.441406 -457.703125 342.765625 -453.703125 C 350.097656 -449.703125 353.765625 -444.039062 353.765625 -436.71875 C 353.765625 -430.71875 351.265625 -426.050781 346.265625 -422.71875 C 341.273438 -419.382812 334.445312 -417.71875 325.78125 -417.71875 C 315.125 -417.71875 304.128906 -419.71875 292.796875 -423.71875 C 281.472656 -427.71875 268.148438 -433.050781 252.828125 -439.71875 C 166.222656 -413.726562 122.921875 -359.09375 122.921875 -275.8125 C 122.921875 -231.175781 134.578125 -192.535156 157.890625 -159.890625 C 181.210938 -127.242188 213.191406 -102.425781 253.828125 -85.4375 C 294.472656 -68.445312 340.113281 -59.953125 390.75 -59.953125 C 438.050781 -59.953125 481.851562 -67.445312 522.15625 -82.4375 C 562.46875 -97.4375 594.445312 -118.757812 618.09375 -146.40625 C 641.75 -174.050781 653.578125 -206.195312 653.578125 -242.84375 C 653.578125 -269.488281 646.578125 -296.46875 632.578125 -323.78125 C 618.585938 -351.101562 591.941406 -372.425781 552.640625 -387.75 C 500.671875 -371.757812 462.363281 -359.097656 437.71875 -349.765625 C 409.726562 -339.109375 388.070312 -326.953125 372.75 -313.296875 C 357.425781 -299.640625 349.765625 -282.816406 349.765625 -262.828125 C 349.765625 -238.835938 359.59375 -219.515625 379.25 -204.859375 C 398.90625 -190.203125 419.722656 -182.875 441.703125 -182.875 C 453.035156 -182.875 465.363281 -184.875 478.6875 -188.875 C 492.007812 -192.875 499.671875 -198.203125 501.671875 -204.859375 C 489.015625 -207.523438 478.019531 -212.851562 468.6875 -220.84375 C 459.363281 -228.84375 454.703125 -240.503906 454.703125 -255.828125 C 454.703125 -271.816406 459.863281 -284.472656 470.1875 -293.796875 C 480.519531 -303.128906 493.679688 -307.796875 509.671875 -307.796875 C 525.660156 -307.796875 538.484375 -302.796875 548.140625 -292.796875 C 557.796875 -282.804688 562.625 -269.816406 562.625 -253.828125 C 562.625 -227.179688 550.296875 -206.195312 525.640625 -190.875 C 500.992188 -175.550781 473.679688 -167.890625 443.703125 -167.890625 C 411.054688 -167.890625 382.242188 -177.710938 357.265625 -197.359375 C 332.285156 -217.015625 319.796875 -246.164062 319.796875 -284.8125 C 319.796875 -318.789062 331.285156 -347.601562 354.265625 -371.25 C 377.253906 -394.90625 411.734375 -414.726562 457.703125 -430.71875 L 528.65625 -451.703125 C 568.625 -463.023438 601.929688 -473.015625 628.578125 -481.671875 C 655.234375 -490.335938 679.554688 -499.671875 701.546875 -509.671875 C 733.515625 -524.328125 755.828125 -539.316406 768.484375 -554.640625 C 781.148438 -569.960938 787.484375 -586.953125 787.484375 -605.609375 C 787.484375 -633.585938 775.988281 -657.398438 753 -677.046875 C 730.019531 -696.703125 702.875 -706.53125 671.5625 -706.53125 C 654.90625 -706.53125 644.910156 -703.535156 641.578125 -697.546875 C 650.234375 -693.546875 657.0625 -687.046875 662.0625 -678.046875 C 667.0625 -669.054688 669.5625 -660.234375 669.5625 -651.578125 C 669.5625 -637.578125 664.0625 -625.914062 653.0625 -616.59375 C 642.070312 -607.269531 628.914062 -602.609375 613.59375 -602.609375 C 599.601562 -602.609375 587.273438 -606.9375 576.609375 -615.59375 C 565.953125 -624.257812 560.625 -636.585938 560.625 -652.578125 C 560.625 -676.554688 571.785156 -694.039062 594.109375 -705.03125 C 616.429688 -716.03125 641.914062 -721.53125 670.5625 -721.53125 Z M 670.5625 -721.53125 "/></g></g></g></svg>