<svg xmlns="http://www.w3.org/2000/svg" xmlns:xlink="http://www.w3.org/1999/xlink" width="1080" zoomAndPan="magnify" viewBox="0 0 810 112.499997" height="150" preserveAspectRatio="xMidYMid meet" version="1.0"><defs><clipPath id="9ac21989cc"><path d="M 23 38 L 726 38 L 726 102 L 23 102 Z M 23 38 " clip-rule="nonzero"/></clipPath><clipPath id="1345517c96"><path d="M 21.285156 59.4375 L 790.730469 5.632812 L 797.03125 95.757812 L 27.589844 149.5625 Z M 21.285156 59.4375 " clip-rule="nonzero"/></clipPath><clipPath id="6960c242ac"><path d="M 790.683594 5.632812 L 21.238281 59.4375 L 27.542969 149.566406 L 796.984375 95.761719 Z M 790.683594 5.632812 " clip-rule="nonzero"/></clipPath><clipPath id="6390cd9575"><path d="M 546 28 L 784 28 L 784 90 L 546 90 Z M 546 28 " clip-rule="nonzero"/></clipPath><clipPath id="008fc45ab7"><path d="M 21.285156 59.4375 L 790.730469 5.632812 L 797.03125 95.757812 L 27.589844 149.5625 Z M 21.285156 59.4375 " clip-rule="nonzero"/></clipPath><clipPath id="96d1f1aa01"><path d="M 790.683594 5.632812 L 21.238281 59.4375 L 27.542969 149.566406 L 796.984375 95.761719 Z M 790.683594 5.632812 " clip-rule="nonzero"/></clipPath></defs><g clip-path="url(#9ac21989cc)"><g clip-path="url(#1345517c96)"><g clip-path="url(#6960c242ac)"><path fill="#928d6e" d="M 725.339844 61.207031 C 611.355469 18.175781 489.527344 45.378906 374.09375 66.949219 C 287.460938 82.914062 199.730469 97.003906 111.382812 91.46875 C 82.011719 89.871094 52.730469 86.179688 23.566406 81.335938 C 59.277344 90.894531 96.070312 97.023438 133.023438 99.84375 C 214.652344 106.144531 296.296875 94.144531 376.394531 79.648438 C 492.34375 57.640625 608.207031 28.539062 725.339844 61.207031 Z M 725.339844 61.207031 " fill-opacity="1" fill-rule="nonzero"/></g></g></g><g clip-path="url(#6390cd9575)"><g clip-path="url(#008fc45ab7)"><g clip-path="url(#96d1f1aa01)"><path fill="#928d6e" d="M 745.957031 49.621094 C 748.242188 47.96875 751.027344 44.980469 751.484375 45.101562 C 751.71875 45.164062 751.4375 46.65625 750.511719 48.289062 C 749.582031 49.921875 748.023438 51.675781 747.296875 52.25 C 741.632812 56.671875 732.035156 54.121094 730.46875 45.691406 C 728.773438 33.601562 743.839844 27.410156 753.8125 28.0625 C 785.769531 29.222656 793.9375 62.453125 769.816406 81.390625 C 742.746094 99.804688 702.871094 83.554688 674.28125 77.253906 C 646.585938 71.160156 618.3125 68.460938 590.078125 65.472656 L 547.011719 61.636719 L 546.96875 60.351562 C 561.335938 58.101562 575.828125 56.9375 590.359375 56.503906 C 604.917969 56.03125 619.496094 56.503906 634.027344 57.589844 C 648.65625 58.929688 663.480469 60.492188 677.621094 64.8125 C 702.949219 71.941406 738.007812 88.386719 763.09375 75.875 C 767.1875 73.609375 770.699219 70.226562 773.125 66.195312 C 785.691406 45.835938 764.449219 28.417969 743.75 33.910156 C 738.046875 35.621094 731.453125 40.863281 734.253906 47.292969 C 734.253906 47.292969 735.695312 49.992188 738.632812 50.839844 C 741.570312 51.695312 743.664062 51.261719 745.945312 49.609375 Z M 745.957031 49.621094 " fill-opacity="1" fill-rule="nonzero"/></g></g></g></svg>