<svg xmlns="http://www.w3.org/2000/svg" xmlns:xlink="http://www.w3.org/1999/xlink" width="1080" zoomAndPan="magnify" viewBox="0 0 810 112.499997" height="150" preserveAspectRatio="xMidYMid meet" version="1.0"><defs><clipPath id="888f01deff"><path d="M 88 35 L 791 35 L 791 83 L 88 83 Z M 88 35 " clip-rule="nonzero"/></clipPath><clipPath id="bf477f52b5"><path d="M 20.832031 11.199219 L 791.832031 33.53125 L 789.214844 123.839844 L 18.21875 101.511719 Z M 20.832031 11.199219 " clip-rule="nonzero"/></clipPath><clipPath id="3a47263b6b"><path d="M 20.832031 11.199219 L 791.832031 33.53125 L 789.214844 123.839844 L 18.21875 101.511719 Z M 20.832031 11.199219 " clip-rule="nonzero"/></clipPath><clipPath id="b013dd4b08"><path d="M 29 31 L 267 31 L 267 94 L 29 94 Z M 29 31 " clip-rule="nonzero"/></clipPath><clipPath id="36504e4ad0"><path d="M 20.832031 11.199219 L 791.832031 33.53125 L 789.214844 123.839844 L 18.21875 101.511719 Z M 20.832031 11.199219 " clip-rule="nonzero"/></clipPath><clipPath id="2a3fc147c1"><path d="M 20.832031 11.199219 L 791.832031 33.53125 L 789.214844 123.839844 L 18.21875 101.511719 Z M 20.832031 11.199219 " clip-rule="nonzero"/></clipPath></defs><g clip-path="url(#888f01deff)"><g clip-path="url(#bf477f52b5)"><g clip-path="url(#3a47263b6b)"><path fill="#928d6e" d="M 88.394531 64.058594 C 200.523438 16.40625 323.363281 38.609375 439.582031 55.449219 C 526.792969 67.859375 615.027344 78.355469 703.074219 69.214844 C 732.355469 66.417969 761.457031 61.535156 790.402344 55.503906 C 755.109375 66.515625 718.601562 74.140625 681.792969 78.46875 C 600.488281 88.097656 518.421875 79.441406 437.796875 68.230469 C 321.046875 50.976562 204.09375 26.632812 88.394531 64.058594 Z M 88.394531 64.058594 " fill-opacity="1" fill-rule="nonzero"/></g></g></g><g clip-path="url(#b013dd4b08)"><g clip-path="url(#36504e4ad0)"><g clip-path="url(#2a3fc147c1)"><path fill="#928d6e" d="M 67.320312 53.320312 C 64.96875 51.765625 62.066406 48.894531 61.613281 49.035156 C 61.382812 49.105469 61.71875 50.582031 62.714844 52.175781 C 63.707031 53.769531 65.339844 55.460938 66.085938 56.007812 C 71.929688 60.191406 81.414062 57.25 82.632812 48.765625 C 83.835938 36.613281 68.527344 31.046875 58.589844 32.105469 C 26.703125 34.570312 19.902344 68.105469 44.777344 86.039062 C 72.578125 103.335938 111.753906 85.46875 140.0625 78.007812 C 167.488281 70.785156 195.625 66.933594 223.714844 62.796875 L 266.589844 57.203125 L 266.578125 55.914062 C 252.132812 54.257812 237.605469 53.683594 223.066406 53.84375 C 208.5 53.964844 193.957031 55.035156 179.480469 56.714844 C 164.917969 58.648438 150.167969 60.816406 136.21875 65.710938 C 111.203125 73.871094 76.847656 91.730469 51.269531 80.253906 C 47.085938 78.15625 43.4375 74.921875 40.851562 70.992188 C 27.464844 51.164062 47.976562 32.894531 68.882812 37.535156 C 74.652344 39.011719 81.453125 43.980469 78.917969 50.519531 C 78.917969 50.519531 77.585938 53.277344 74.6875 54.242188 C 71.785156 55.21875 69.679688 54.871094 67.328125 53.3125 Z M 67.320312 53.320312 " fill-opacity="1" fill-rule="nonzero"/></g></g></g></svg>