<svg xmlns="http://www.w3.org/2000/svg" xmlns:xlink="http://www.w3.org/1999/xlink" width="500" zoomAndPan="magnify" viewBox="0 0 375 374.999991" height="500" preserveAspectRatio="xMidYMid meet" version="1.0"><defs><g/><clipPath id="4fa82cc470"><path d="M 47.21875 177.167969 L 75.546875 177.167969 L 75.546875 213.214844 L 47.21875 213.214844 Z M 47.21875 177.167969 " clip-rule="nonzero"/></clipPath><clipPath id="acfd788192"><path d="M 47.21875 177.167969 L 75.546875 177.167969 L 75.546875 206 L 47.21875 206 Z M 47.21875 177.167969 " clip-rule="nonzero"/></clipPath><clipPath id="73d92c1b20"><path d="M 300 177.167969 L 328.128906 177.167969 L 328.128906 213.214844 L 300 213.214844 Z M 300 177.167969 " clip-rule="nonzero"/></clipPath><clipPath id="43b25a8c10"><path d="M 299.800781 177.167969 L 328.128906 177.167969 L 328.128906 206 L 299.800781 206 Z M 299.800781 177.167969 " clip-rule="nonzero"/></clipPath></defs><g fill="#ec4f43" fill-opacity="1"><g transform="translate(84.602355, 245.166556)"><g><path d="M 56.394531 -9.25 C 53.3125 -1.632812 48.417969 -1.449219 42.613281 -1.449219 L 32.460938 -1.449219 C 28.46875 -1.449219 27.382812 -1.8125 27.382812 -4.535156 L 27.382812 -101.546875 C 27.382812 -103.722656 29.375 -104.449219 34.089844 -104.449219 L 34.089844 -105.898438 L 3.625 -105.898438 L 3.625 -104.449219 C 8.339844 -104.449219 10.335938 -103.722656 10.335938 -101.546875 L 10.335938 -4.351562 C 10.335938 -2.175781 8.339844 -1.449219 3.625 -1.449219 L 3.625 0 L 72.171875 0 L 72.171875 -22.304688 C 62.5625 -22.304688 59.296875 -16.863281 56.394531 -9.25 Z M 56.394531 -9.25 "/></g></g></g><g fill="#ec4f43" fill-opacity="1"><g transform="translate(212.421816, 245.166556)"><g><path d="M 40.621094 -40.074219 C 45.335938 -40.074219 47.328125 -39.351562 47.328125 -37.175781 L 47.328125 -5.257812 C 47.328125 -4.894531 47.148438 -1.449219 44.425781 -1.449219 C 31.007812 -1.449219 20.855469 -19.039062 20.855469 -52.226562 C 21.035156 -91.394531 35.90625 -104.085938 46.964844 -104.085938 C 56.941406 -104.085938 62.5625 -95.382812 62.921875 -89.761719 C 63.105469 -85.953125 61.652344 -82.871094 58.933594 -83.777344 C 55.125 -85.410156 46.785156 -82.871094 46.421875 -74.347656 C 46.242188 -68.183594 50.957031 -63.46875 56.394531 -63.46875 C 64.191406 -63.46875 70.175781 -70.175781 70.175781 -80.511719 C 70.175781 -92.300781 61.835938 -105.898438 44.066406 -105.898438 C 25.75 -105.898438 2.71875 -88.855469 2.71875 -52.40625 C 2.71875 -11.96875 28.46875 0 44.789062 0 L 47.328125 0 C 52.226562 0 54.761719 -2.175781 58.933594 -2.175781 C 61.652344 -2.175781 63.46875 -0.542969 64.554688 0 L 64.554688 -37.175781 C 64.554688 -39.351562 66.550781 -40.074219 71.265625 -40.074219 L 71.265625 -41.527344 L 40.621094 -41.527344 Z M 40.621094 -40.074219 "/></g></g></g><g clip-path="url(#4fa82cc470)"><path fill="#ffaba0" d="M 59.894531 187.460938 C 60.507812 185.84375 61.25 184.488281 61.992188 183.175781 C 62.957031 181.382812 64.3125 179.855469 65.972656 178.71875 C 66.757812 178.191406 67.675781 177.972656 68.59375 177.929688 C 69.511719 177.886719 70.515625 178.9375 70.953125 180.117188 C 71.390625 181.339844 71.261719 182.609375 71.128906 183.875 C 71 185.449219 70.824219 187.066406 70.472656 188.640625 C 70.035156 190.5625 69.644531 192.484375 69.292969 194.453125 C 68.945312 196.375 68.15625 198.125 67.9375 200.089844 C 67.808594 201.226562 67.238281 202.234375 66.976562 203.371094 C 66.628906 204.898438 66.015625 206.429688 65.621094 207.960938 C 65.273438 209.402344 64.398438 210.539062 63.917969 211.894531 C 63.742188 212.460938 63.042969 212.765625 62.429688 213.03125 C 62.167969 213.160156 61.949219 213.03125 61.730469 212.855469 C 61.601562 212.722656 61.511719 212.59375 61.425781 212.460938 C 60.15625 210.40625 58.757812 208.484375 57.710938 206.34375 C 57.054688 205.03125 56.222656 203.808594 55.570312 202.496094 C 54.695312 200.789062 53.734375 199.128906 52.988281 197.335938 C 52.726562 196.636719 52.335938 195.984375 51.984375 195.285156 C 50.980469 193.097656 50.148438 190.867188 49.363281 188.597656 C 48.96875 187.503906 48.707031 186.367188 48.355469 185.230469 C 48.007812 184.007812 47.789062 182.695312 47.527344 181.425781 C 47.308594 180.203125 47.746094 179.242188 48.53125 178.410156 C 49.230469 177.667969 50.234375 177.753906 51.152344 178.019531 C 51.984375 178.238281 52.726562 178.628906 53.339844 179.199219 C 54.386719 180.160156 55.480469 181.078125 56.355469 182.257812 C 57.710938 183.832031 58.976562 185.40625 59.894531 187.460938 Z M 179.3125 182.125 C 178.960938 181.296875 178.4375 180.597656 177.871094 179.898438 C 176.777344 178.5 175.289062 177.582031 173.980469 176.53125 C 173.019531 175.789062 171.925781 175.21875 170.699219 174.914062 C 169.476562 174.609375 167.945312 175.308594 167.640625 176.355469 C 167.292969 177.582031 167.074219 178.804688 167.378906 180.074219 C 167.902344 182.476562 168.515625 184.878906 169.476562 187.195312 C 169.652344 187.589844 169.695312 188.027344 169.914062 188.378906 C 170.964844 189.949219 171.445312 191.832031 172.316406 193.492188 C 173.453125 195.765625 174.503906 198.125 175.554688 200.441406 C 176.515625 202.539062 177.871094 204.417969 178.742188 206.5625 C 178.917969 206.996094 179.179688 207.390625 179.441406 207.785156 C 180.097656 208.703125 180.972656 208.746094 181.496094 207.695312 C 182.371094 206.078125 183.203125 204.417969 183.902344 202.671875 C 184.6875 200.617188 185.695312 198.691406 186.523438 196.683594 C 187.398438 194.585938 188.140625 192.441406 188.972656 190.34375 C 189.496094 189.03125 189.933594 187.679688 190.195312 186.277344 C 190.414062 185.1875 190.894531 184.179688 191.113281 183.089844 C 191.417969 181.691406 191.507812 180.335938 191.199219 178.980469 C 190.894531 177.582031 189.847656 176.269531 188.316406 176.226562 C 187.660156 176.226562 187.003906 176.355469 186.347656 176.574219 C 185.5625 176.835938 185.039062 177.449219 184.292969 177.800781 C 183.246094 178.28125 182.503906 179.199219 181.804688 180.074219 C 181.105469 180.992188 180.40625 181.953125 179.96875 183.042969 C 179.574219 182.824219 179.441406 182.476562 179.3125 182.125 Z M 120.957031 183.089844 C 120.652344 182.300781 120.257812 181.558594 119.734375 180.859375 C 117.8125 178.324219 115.1875 176.792969 112.171875 176.050781 C 109.988281 175.527344 108.589844 176.621094 108.328125 178.761719 C 108.195312 179.941406 108.457031 181.121094 108.808594 182.257812 C 109.683594 184.792969 110.992188 187.195312 112.261719 189.558594 C 112.609375 190.167969 112.828125 190.867188 113.222656 191.480469 C 115.714844 195.546875 118.378906 199.480469 121.441406 203.109375 C 122.445312 204.289062 123.40625 205.554688 124.457031 206.648438 C 125.15625 207.390625 125.328125 207.347656 125.855469 206.472656 C 126.511719 205.378906 126.992188 204.242188 127.429688 203.0625 C 127.910156 201.664062 128.257812 200.265625 128.738281 198.867188 C 129.65625 196.15625 130.355469 193.359375 131.101562 190.605469 C 131.929688 187.460938 132.191406 184.226562 132.410156 180.992188 C 132.5 179.636719 132.5 178.148438 131.886719 176.792969 C 131.054688 175.046875 129.308594 174.257812 127.515625 175.089844 C 126.554688 175.527344 125.855469 176.269531 125.328125 177.101562 C 123.976562 179.285156 122.792969 181.558594 122.140625 184.09375 C 122.09375 184.269531 121.964844 184.398438 121.875 184.617188 C 121.484375 184.09375 121.175781 183.65625 120.957031 183.089844 Z M 120.957031 183.089844 " fill-opacity="1" fill-rule="nonzero"/></g><g clip-path="url(#acfd788192)"><path fill="#ffaba0" d="M 151.074219 169.714844 C 151.6875 168.53125 152.300781 167.394531 152.867188 166.214844 C 153.742188 164.46875 154.789062 162.894531 156.1875 161.496094 C 156.496094 161.191406 156.84375 160.972656 157.238281 160.796875 C 159.640625 159.617188 161.171875 161.058594 161.523438 163.113281 C 161.871094 165.253906 161.871094 167.441406 161.433594 169.625 C 160.867188 172.378906 160.167969 175.132812 159.207031 177.753906 C 158.417969 179.898438 157.675781 182.039062 156.800781 184.136719 C 155.796875 186.542969 154.617188 188.859375 153.480469 191.21875 C 153.304688 191.613281 152.953125 191.960938 152.648438 192.355469 C 151.992188 193.273438 151.335938 193.316406 150.550781 192.398438 C 150.070312 191.785156 149.632812 191.085938 149.195312 190.429688 C 147.535156 187.894531 145.917969 185.316406 144.5625 182.652344 C 143.382812 180.335938 142.113281 178.0625 140.933594 175.746094 C 139.578125 172.992188 138.441406 170.148438 137.699219 167.132812 C 137.4375 166.042969 137.132812 164.949219 137.304688 163.769531 C 137.351562 163.460938 137.351562 163.199219 137.480469 162.894531 C 138.355469 160.402344 140.015625 160.226562 142.113281 161.015625 C 143.164062 161.40625 143.992188 162.0625 144.824219 162.761719 C 146.746094 164.335938 148.410156 166.171875 149.851562 168.183594 C 150.199219 168.664062 150.246094 169.363281 151.074219 169.714844 Z M 26.019531 179.023438 C 25.058594 176.882812 24.273438 174.609375 22.21875 173.167969 C 22.042969 173.035156 21.957031 172.816406 21.867188 172.640625 C 21.476562 171.898438 20.863281 171.285156 20.164062 170.761719 C 19.113281 170.019531 18.152344 169.058594 16.839844 168.75 C 15.222656 168.359375 13.78125 169.1875 13.386719 170.761719 C 12.863281 172.992188 13.167969 175.132812 14.085938 177.1875 C 14.21875 177.492188 14.394531 177.800781 14.480469 178.105469 C 15.179688 180.507812 16.449219 182.609375 17.496094 184.835938 C 18.328125 186.585938 19.464844 188.160156 20.46875 189.820312 C 21.824219 192.09375 23.398438 194.234375 24.839844 196.464844 C 25.582031 197.644531 26.5 198.738281 27.375 199.871094 C 27.679688 200.265625 28.207031 200.527344 28.382812 200.964844 C 29.167969 202.757812 30.742188 203.9375 31.878906 205.425781 C 32.402344 206.167969 32.753906 206.078125 33.015625 205.160156 C 33.320312 204.027344 33.453125 202.84375 33.539062 201.664062 C 33.582031 200.355469 33.667969 199.042969 33.84375 197.773438 C 34.105469 195.894531 34.238281 194.015625 34.371094 192.136719 C 34.457031 191 34.414062 189.863281 34.542969 188.726562 C 34.804688 186.628906 34.980469 184.53125 35.023438 182.433594 C 35.023438 181.078125 35.023438 179.722656 35.113281 178.367188 C 35.15625 177.625 35.242188 176.925781 35.070312 176.226562 C 34.804688 175.089844 34.9375 173.996094 34.894531 172.859375 C 34.804688 171.285156 34.457031 169.800781 33.453125 168.488281 C 33.144531 168.097656 32.796875 167.878906 32.269531 167.878906 C 31.351562 167.832031 30.785156 168.140625 30.347656 168.96875 C 29.472656 170.675781 28.992188 172.464844 28.554688 174.347656 C 28.03125 176.664062 27.855469 179.023438 27.332031 181.558594 C 26.765625 180.597656 26.371094 179.855469 26.019531 179.023438 Z M 89.925781 174.785156 C 89.3125 172.949219 88.394531 171.375 87.214844 169.84375 C 86.777344 169.277344 86.253906 168.796875 85.773438 168.269531 C 84.460938 166.785156 82.84375 165.605469 80.921875 165.035156 C 79.039062 164.46875 77.421875 165.472656 77.25 167.351562 C 77.160156 168.226562 77.25 169.144531 77.46875 169.976562 C 77.859375 171.503906 78.253906 173.078125 78.910156 174.519531 C 79.433594 175.703125 79.957031 176.882812 80.394531 178.105469 C 81.445312 180.992188 82.886719 183.699219 84.417969 186.324219 C 86.339844 189.6875 88.832031 192.660156 91.191406 195.71875 C 91.453125 196.070312 91.71875 196.375 91.980469 196.683594 C 92.371094 197.121094 93.070312 197.292969 93.289062 196.988281 C 93.683594 196.417969 94.296875 195.9375 94.515625 195.238281 C 94.953125 193.753906 95.433594 192.265625 95.871094 190.78125 C 96.480469 188.640625 97.003906 186.453125 97.707031 184.355469 C 98.535156 181.777344 99.148438 179.15625 99.757812 176.53125 C 100.285156 174.347656 100.546875 172.074219 100.808594 169.800781 C 100.941406 168.578125 101.027344 167.351562 100.632812 166.171875 C 100.328125 165.34375 100.066406 164.597656 99.058594 164.425781 C 97.835938 164.207031 96.789062 164.511719 96.042969 165.472656 C 95.738281 165.867188 95.433594 166.304688 95.125 166.652344 C 94.425781 167.484375 93.816406 168.402344 93.421875 169.40625 C 92.898438 170.632812 92.199219 171.765625 91.71875 173.035156 C 91.410156 173.867188 91.148438 174.828125 90.449219 175.570312 C 90.097656 175.4375 90.011719 175.089844 89.925781 174.785156 Z M 89.925781 174.785156 " fill-opacity="1" fill-rule="nonzero"/></g><g clip-path="url(#73d92c1b20)"><path fill="#ffaba0" d="M 312.476562 187.460938 C 313.089844 185.84375 313.832031 184.488281 314.574219 183.175781 C 315.535156 181.382812 316.890625 179.855469 318.554688 178.71875 C 319.339844 178.191406 320.257812 177.972656 321.175781 177.929688 C 322.09375 177.886719 323.097656 178.9375 323.535156 180.117188 C 323.972656 181.339844 323.839844 182.609375 323.710938 183.875 C 323.578125 185.449219 323.40625 187.066406 323.054688 188.640625 C 322.617188 190.5625 322.222656 192.484375 321.875 194.453125 C 321.523438 196.375 320.738281 198.125 320.519531 200.089844 C 320.386719 201.226562 319.820312 202.234375 319.558594 203.371094 C 319.207031 204.898438 318.597656 206.429688 318.203125 207.960938 C 317.851562 209.402344 316.980469 210.539062 316.5 211.894531 C 316.324219 212.460938 315.625 212.765625 315.011719 213.03125 C 314.75 213.160156 314.53125 213.03125 314.3125 212.855469 C 314.183594 212.722656 314.09375 212.59375 314.007812 212.460938 C 312.738281 210.40625 311.339844 208.484375 310.292969 206.34375 C 309.636719 205.03125 308.804688 203.808594 308.148438 202.496094 C 307.277344 200.789062 306.3125 199.128906 305.570312 197.335938 C 305.308594 196.636719 304.914062 195.984375 304.566406 195.285156 C 303.558594 193.097656 302.730469 190.867188 301.941406 188.597656 C 301.550781 187.503906 301.289062 186.367188 300.9375 185.230469 C 300.589844 184.007812 300.371094 182.695312 300.105469 181.425781 C 299.886719 180.203125 300.324219 179.242188 301.113281 178.410156 C 301.8125 177.667969 302.816406 177.753906 303.734375 178.019531 C 304.566406 178.238281 305.308594 178.628906 305.921875 179.199219 C 306.96875 180.160156 308.0625 181.078125 308.9375 182.257812 C 310.292969 183.832031 311.558594 185.40625 312.476562 187.460938 Z M 431.894531 182.125 C 431.542969 181.296875 431.019531 180.597656 430.449219 179.898438 C 429.359375 178.5 427.871094 177.582031 426.558594 176.53125 C 425.597656 175.789062 424.507812 175.21875 423.28125 174.914062 C 422.058594 174.609375 420.527344 175.308594 420.222656 176.355469 C 419.871094 177.582031 419.652344 178.804688 419.960938 180.074219 C 420.484375 182.476562 421.097656 184.878906 422.058594 187.195312 C 422.234375 187.589844 422.277344 188.027344 422.496094 188.378906 C 423.542969 189.949219 424.023438 191.832031 424.898438 193.492188 C 426.035156 195.765625 427.085938 198.125 428.132812 200.441406 C 429.09375 202.539062 430.449219 204.417969 431.324219 206.5625 C 431.5 206.996094 431.761719 207.390625 432.023438 207.785156 C 432.679688 208.703125 433.554688 208.746094 434.078125 207.695312 C 434.953125 206.078125 435.785156 204.417969 436.484375 202.671875 C 437.269531 200.617188 438.273438 198.691406 439.105469 196.683594 C 439.980469 194.585938 440.722656 192.441406 441.554688 190.34375 C 442.078125 189.03125 442.515625 187.679688 442.777344 186.277344 C 442.996094 185.1875 443.476562 184.179688 443.695312 183.089844 C 444 181.691406 444.089844 180.335938 443.78125 178.980469 C 443.476562 177.582031 442.425781 176.269531 440.898438 176.226562 C 440.242188 176.226562 439.585938 176.355469 438.929688 176.574219 C 438.144531 176.835938 437.617188 177.449219 436.875 177.800781 C 435.828125 178.28125 435.082031 179.199219 434.382812 180.074219 C 433.683594 180.992188 432.984375 181.953125 432.546875 183.042969 C 432.15625 182.824219 432.023438 182.476562 431.894531 182.125 Z M 373.539062 183.089844 C 373.234375 182.300781 372.839844 181.558594 372.316406 180.859375 C 370.394531 178.324219 367.769531 176.792969 364.753906 176.050781 C 362.570312 175.527344 361.171875 176.621094 360.90625 178.761719 C 360.777344 179.941406 361.039062 181.121094 361.390625 182.257812 C 362.261719 184.792969 363.574219 187.195312 364.84375 189.558594 C 365.191406 190.167969 365.410156 190.867188 365.804688 191.480469 C 368.292969 195.546875 370.960938 199.480469 374.019531 203.109375 C 375.027344 204.289062 375.988281 205.554688 377.035156 206.648438 C 377.734375 207.390625 377.910156 207.347656 378.4375 206.472656 C 379.089844 205.378906 379.570312 204.242188 380.007812 203.0625 C 380.488281 201.664062 380.839844 200.265625 381.320312 198.867188 C 382.238281 196.15625 382.9375 193.359375 383.679688 190.605469 C 384.511719 187.460938 384.773438 184.226562 384.992188 180.992188 C 385.078125 179.636719 385.078125 178.148438 384.46875 176.792969 C 383.636719 175.046875 381.890625 174.257812 380.097656 175.089844 C 379.136719 175.527344 378.4375 176.269531 377.910156 177.101562 C 376.554688 179.285156 375.375 181.558594 374.71875 184.09375 C 374.675781 184.269531 374.546875 184.398438 374.457031 184.617188 C 374.066406 184.09375 373.757812 183.65625 373.539062 183.089844 Z M 373.539062 183.089844 " fill-opacity="1" fill-rule="nonzero"/></g><g clip-path="url(#43b25a8c10)"><path fill="#ffaba0" d="M 403.65625 169.714844 C 404.269531 168.53125 404.878906 167.394531 405.449219 166.214844 C 406.324219 164.46875 407.371094 162.894531 408.769531 161.496094 C 409.078125 161.191406 409.425781 160.972656 409.820312 160.796875 C 412.222656 159.617188 413.753906 161.058594 414.101562 163.113281 C 414.453125 165.253906 414.453125 167.441406 414.015625 169.625 C 413.449219 172.378906 412.746094 175.132812 411.785156 177.753906 C 411 179.898438 410.257812 182.039062 409.382812 184.136719 C 408.378906 186.542969 407.195312 188.859375 406.058594 191.21875 C 405.886719 191.613281 405.535156 191.960938 405.230469 192.355469 C 404.574219 193.273438 403.917969 193.316406 403.132812 192.398438 C 402.652344 191.785156 402.214844 191.085938 401.777344 190.429688 C 400.117188 187.894531 398.5 185.316406 397.144531 182.652344 C 395.964844 180.335938 394.695312 178.0625 393.515625 175.746094 C 392.160156 172.992188 391.023438 170.148438 390.28125 167.132812 C 390.019531 166.042969 389.710938 164.949219 389.886719 163.769531 C 389.929688 163.460938 389.929688 163.199219 390.0625 162.894531 C 390.9375 160.402344 392.597656 160.226562 394.695312 161.015625 C 395.746094 161.40625 396.574219 162.0625 397.40625 162.761719 C 399.328125 164.335938 400.988281 166.171875 402.433594 168.183594 C 402.78125 168.664062 402.824219 169.363281 403.65625 169.714844 Z M 278.601562 179.023438 C 277.640625 176.882812 276.851562 174.609375 274.800781 173.167969 C 274.625 173.035156 274.535156 172.816406 274.449219 172.640625 C 274.054688 171.898438 273.445312 171.285156 272.746094 170.761719 C 271.695312 170.019531 270.734375 169.058594 269.421875 168.75 C 267.804688 168.359375 266.363281 169.1875 265.96875 170.761719 C 265.445312 172.992188 265.75 175.132812 266.667969 177.1875 C 266.800781 177.492188 266.976562 177.800781 267.0625 178.105469 C 267.761719 180.507812 269.03125 182.609375 270.078125 184.835938 C 270.910156 186.585938 272.046875 188.160156 273.050781 189.820312 C 274.40625 192.09375 275.980469 194.234375 277.421875 196.464844 C 278.164062 197.644531 279.082031 198.738281 279.957031 199.871094 C 280.261719 200.265625 280.789062 200.527344 280.960938 200.964844 C 281.75 202.757812 283.324219 203.9375 284.457031 205.425781 C 284.984375 206.167969 285.332031 206.078125 285.59375 205.160156 C 285.902344 204.027344 286.03125 202.84375 286.121094 201.664062 C 286.164062 200.355469 286.25 199.042969 286.425781 197.773438 C 286.6875 195.894531 286.820312 194.015625 286.949219 192.136719 C 287.039062 191 286.996094 189.863281 287.125 188.726562 C 287.386719 186.628906 287.5625 184.53125 287.605469 182.433594 C 287.605469 181.078125 287.605469 179.722656 287.695312 178.367188 C 287.738281 177.625 287.824219 176.925781 287.648438 176.226562 C 287.386719 175.089844 287.519531 173.996094 287.476562 172.859375 C 287.386719 171.285156 287.039062 169.800781 286.03125 168.488281 C 285.726562 168.097656 285.375 167.878906 284.851562 167.878906 C 283.933594 167.832031 283.367188 168.140625 282.929688 168.96875 C 282.054688 170.675781 281.574219 172.464844 281.136719 174.347656 C 280.613281 176.664062 280.4375 179.023438 279.914062 181.558594 C 279.34375 180.597656 278.953125 179.855469 278.601562 179.023438 Z M 342.507812 174.785156 C 341.894531 172.949219 340.976562 171.375 339.796875 169.84375 C 339.359375 169.277344 338.835938 168.796875 338.351562 168.269531 C 337.042969 166.785156 335.425781 165.605469 333.5 165.035156 C 331.621094 164.46875 330.003906 165.472656 329.828125 167.351562 C 329.742188 168.226562 329.828125 169.144531 330.046875 169.976562 C 330.441406 171.503906 330.835938 173.078125 331.492188 174.519531 C 332.015625 175.703125 332.539062 176.882812 332.976562 178.105469 C 334.027344 180.992188 335.46875 183.699219 337 186.324219 C 338.921875 189.6875 341.414062 192.660156 343.773438 195.71875 C 344.035156 196.070312 344.296875 196.375 344.558594 196.683594 C 344.953125 197.121094 345.652344 197.292969 345.871094 196.988281 C 346.265625 196.417969 346.878906 195.9375 347.09375 195.238281 C 347.53125 193.753906 348.011719 192.265625 348.449219 190.78125 C 349.0625 188.640625 349.585938 186.453125 350.285156 184.355469 C 351.117188 181.777344 351.730469 179.15625 352.339844 176.53125 C 352.867188 174.347656 353.128906 172.074219 353.390625 169.800781 C 353.519531 168.578125 353.609375 167.351562 353.214844 166.171875 C 352.910156 165.34375 352.648438 164.597656 351.640625 164.425781 C 350.417969 164.207031 349.367188 164.511719 348.625 165.472656 C 348.320312 165.867188 348.011719 166.304688 347.707031 166.652344 C 347.007812 167.484375 346.394531 168.402344 346.003906 169.40625 C 345.476562 170.632812 344.777344 171.765625 344.296875 173.035156 C 343.992188 173.867188 343.730469 174.828125 343.03125 175.570312 C 342.679688 175.4375 342.59375 175.089844 342.507812 174.785156 Z M 342.507812 174.785156 " fill-opacity="1" fill-rule="nonzero"/></g><g fill="#ffaba0" fill-opacity="1"><g transform="translate(161.786103, 221.897594)"><g><path d="M 36.976562 -13.921875 C 42.523438 -23.164062 45.570312 -33.714844 50.679688 -33.714844 L 50.679688 -34.910156 L 32.519531 -34.910156 L 32.519531 -33.714844 C 38.171875 -33.714844 38.390625 -24.796875 34.800781 -16.3125 C 32.300781 -19.140625 29.582031 -22.078125 26.535156 -25.230469 C 25.449219 -26.320312 24.363281 -27.515625 23.492188 -28.496094 C 29.253906 -34.257812 34.257812 -40.785156 34.257812 -48.613281 C 34.257812 -58.730469 27.515625 -63.515625 21.316406 -63.515625 C 15.117188 -63.515625 6.851562 -59.488281 6.851562 -50.246094 C 6.851562 -44.480469 9.351562 -40.023438 14.789062 -34.148438 C 8.046875 -28.820312 1.632812 -23.054688 1.632812 -13.921875 C 1.632812 -2.066406 13.703125 -0.109375 16.855469 -0.109375 C 25.667969 -0.109375 31.320312 -5.328125 35.5625 -11.636719 C 38.933594 -5.546875 38.390625 -0.871094 31.539062 -0.871094 L 31.539062 0 L 52.746094 0 L 52.746094 -0.871094 C 48.941406 -0.871094 43.9375 -6.308594 36.976562 -13.921875 Z M 12.722656 -50.789062 C 12.722656 -60.796875 18.054688 -63.078125 21.535156 -63.078125 C 26.863281 -63.078125 30.234375 -58.621094 30.234375 -54.050781 C 30.234375 -46.4375 24.035156 -41.328125 17.402344 -36.214844 C 13.8125 -41.871094 12.722656 -46.332031 12.722656 -50.789062 Z M 16.53125 -0.761719 C 11.746094 -0.980469 6.960938 -3.046875 6.960938 -7.9375 C 6.960938 -14.03125 14.683594 -20.011719 21.96875 -27.082031 L 26.429688 -22.839844 C 29.472656 -20.011719 32.082031 -17.074219 33.933594 -14.246094 C 30.34375 -6.960938 24.144531 -0.328125 16.53125 -0.761719 Z M 16.53125 -0.761719 "/></g></g></g></svg>