<svg xmlns="http://www.w3.org/2000/svg" xmlns:xlink="http://www.w3.org/1999/xlink" width="1080" zoomAndPan="magnify" viewBox="0 0 810 809.999993" height="1080" preserveAspectRatio="xMidYMid meet" version="1.0"><defs><g/></defs><rect x="-81" width="972" fill="#ffffff" y="-80.999999" height="971.999992" fill-opacity="1"/><rect x="-81" width="972" fill="#ffffff" y="-80.999999" height="971.999992" fill-opacity="1"/><g fill="#616041" fill-opacity="1"><g transform="translate(23.969321, 298.143248)"><g><path d="M 80.125 -34.03125 C 62.183594 -34.03125 54.757812 -25.988281 54.757812 -17.945312 C 54.757812 -6.1875 68.988281 1.855469 87.550781 1.855469 C 104.875 1.855469 125.605469 -6.1875 141.382812 -15.46875 C 158.085938 -8.351562 183.457031 1.855469 203.566406 1.855469 C 224.292969 1.855469 244.09375 -7.117188 262.035156 -25.675781 C 274.71875 -38.671875 277.195312 -42.074219 277.195312 -42.691406 C 277.195312 -43.621094 276.574219 -44.859375 275.957031 -44.859375 C 274.71875 -44.859375 273.480469 -41.765625 256.15625 -24.75 C 244.402344 -13.304688 230.789062 -7.425781 213.773438 -7.425781 C 190.878906 -7.425781 169.535156 -13.921875 147.570312 -20.417969 C 176.648438 -37.742188 200.160156 -73.628906 223.054688 -114.464844 C 268.839844 -133.648438 323.289062 -170.152344 323.289062 -200.472656 C 323.289062 -210.679688 318.339844 -215.941406 307.820312 -215.941406 C 290.496094 -215.941406 265.75 -195.519531 255.539062 -184.074219 C 231.097656 -213.773438 194.285156 -225.21875 167.367188 -225.21875 C 129.007812 -225.21875 88.171875 -200.472656 88.171875 -162.109375 C 88.171875 -127.460938 120.34375 -103.328125 164.894531 -103.328125 C 172.9375 -103.328125 185.003906 -104.875 197.066406 -107.042969 C 172.320312 -61.253906 170.460938 -48.878906 142 -22.273438 C 125.605469 -27.84375 96.832031 -34.03125 80.125 -34.03125 Z M 93.738281 -167.367188 C 93.738281 -201.707031 133.339844 -221.507812 167.058594 -221.507812 C 195.519531 -221.507812 230.789062 -208.824219 253.0625 -181.601562 C 233.265625 -163.347656 218.722656 -140.453125 203.875 -118.179688 C 190.878906 -116.324219 177.886719 -115.085938 164.894531 -115.085938 C 134.886719 -115.085938 93.738281 -132.101562 93.738281 -167.367188 Z M 227.386719 -122.511719 C 236.976562 -140.453125 245.949219 -159.015625 257.703125 -175.722656 C 266.675781 -163.65625 268.222656 -157.160156 270.386719 -157.160156 C 271.007812 -157.160156 271.625 -157.46875 271.625 -158.707031 C 271.625 -159.632812 266.367188 -168.914062 259.871094 -179.125 C 267.914062 -190.261719 292.664062 -212.226562 308.132812 -212.226562 C 315.867188 -212.226562 319.578125 -208.824219 319.578125 -200.472656 C 319.578125 -176.960938 275.648438 -138.597656 227.386719 -122.511719 Z M 137.050781 -16.707031 C 120.652344 -7.425781 105.804688 -1.855469 86.933594 -1.855469 C 68.371094 -1.855469 58.472656 -11.136719 58.472656 -17.324219 C 58.472656 -24.128906 65.277344 -30.316406 78.578125 -30.316406 C 98.6875 -30.316406 117.871094 -22.582031 137.050781 -16.707031 Z M 137.050781 -16.707031 "/></g></g></g><g fill="#616041" fill-opacity="1"><g transform="translate(247.328816, 298.143248)"><g><path d="M 92.191406 -84.765625 C 81.671875 -76.105469 73.628906 -68.0625 67.441406 -61.5625 C 53.210938 -46.714844 51.664062 -44.859375 51.664062 -43.929688 C 51.664062 -42.691406 51.972656 -42.074219 52.902344 -42.074219 C 54.140625 -42.074219 54.140625 -42.691406 58.160156 -47.332031 C 67.441406 -57.234375 77.652344 -68.679688 86.625 -75.484375 L 87.242188 -74.867188 C 75.484375 -57.542969 55.378906 -40.21875 55.378906 -16.707031 C 55.378906 -7.425781 59.707031 0 69.609375 0 C 83.839844 0 103.019531 -22.582031 111.992188 -32.175781 L 112.609375 -31.554688 C 111.371094 -28.152344 110.445312 -24.128906 110.445312 -19.800781 C 110.445312 -12.375 112.609375 0 123.4375 0 C 131.792969 0 141.382812 -7.425781 157.160156 -23.511719 C 163.964844 -30.628906 175.414062 -43.3125 175.414062 -44.238281 C 175.414062 -45.167969 174.792969 -45.785156 173.867188 -45.785156 C 172.320312 -45.785156 172.628906 -43.929688 154.066406 -25.058594 C 139.527344 -9.898438 129.316406 -3.710938 124.984375 -3.710938 C 121.273438 -3.710938 119.726562 -5.570312 119.726562 -8.972656 C 119.726562 -22.582031 158.085938 -71.464844 166.441406 -86.003906 L 146.640625 -84.765625 C 127.460938 -51.664062 86.003906 -3.710938 69.917969 -3.710938 C 67.441406 -3.710938 64.65625 -5.257812 64.65625 -8.972656 C 64.65625 -21.035156 71.464844 -25.367188 109.515625 -86.003906 Z M 92.191406 -84.765625 "/></g></g></g><g fill="#616041" fill-opacity="1"><g transform="translate(367.67069, 298.143248)"><g><path d="M 134.574219 -70.84375 C 134.574219 -80.746094 126.53125 -86.003906 114.464844 -86.003906 C 97.140625 -86.003906 79.507812 -77.34375 61.875 -56.613281 C 51.972656 -45.167969 51.355469 -43.929688 51.355469 -43.3125 C 51.355469 -42.382812 51.972656 -41.765625 52.902344 -41.765625 C 53.519531 -41.765625 54.140625 -43.003906 55.066406 -43.003906 C 55.378906 -43.003906 55.6875 -42.691406 55.6875 -42.382812 C 55.6875 -41.457031 54.757812 -38.980469 54.757812 -34.03125 C 54.757812 -19.179688 60.019531 0 79.199219 0 C 94.667969 0 109.515625 -8.664062 129.007812 -30.007812 C 135.503906 -36.816406 141.074219 -43.3125 141.074219 -44.238281 C 141.074219 -45.167969 140.453125 -46.097656 139.214844 -46.097656 C 138.289062 -46.097656 137.667969 -43.3125 120.964844 -25.988281 C 107.351562 -11.757812 92.191406 -3.710938 81.363281 -3.710938 C 72.390625 -3.710938 68.371094 -7.734375 68.371094 -15.777344 C 68.371094 -51.046875 99 -82.292969 117.558594 -82.292969 C 122.511719 -82.292969 124.675781 -79.507812 124.675781 -77.03125 C 124.675781 -70.226562 115.394531 -73.320312 115.394531 -65.277344 C 115.394531 -61.253906 117.558594 -57.542969 123.128906 -57.542969 C 130.246094 -57.542969 134.574219 -64.96875 134.574219 -70.84375 Z M 134.574219 -70.84375 "/></g></g></g><g fill="#616041" fill-opacity="1"><g transform="translate(453.673359, 298.143248)"><g><path d="M 72.390625 0 C 84.148438 0 101.472656 -17.632812 110.753906 -26.914062 C 110.753906 -25.367188 110.445312 -23.511719 110.445312 -21.347656 C 110.445312 -4.332031 115.703125 0 124.058594 0 C 132.410156 0 144.164062 -9.589844 158.398438 -24.441406 C 165.511719 -32.175781 175.414062 -43.3125 175.414062 -43.929688 C 175.414062 -44.550781 174.792969 -45.785156 173.554688 -45.785156 C 172.9375 -45.785156 172.628906 -45.167969 168.914062 -40.835938 C 150.972656 -19.800781 134.265625 -3.710938 124.984375 -3.710938 C 120.964844 -3.710938 119.726562 -5.570312 119.726562 -8.042969 C 119.726562 -18.871094 155.613281 -73.9375 164.273438 -84.457031 L 149.425781 -83.839844 C 142.929688 -83.53125 143.546875 -79.507812 132.410156 -61.875 L 131.792969 -62.492188 C 132.410156 -64.347656 132.71875 -67.441406 132.71875 -70.84375 C 132.71875 -79.199219 128.699219 -86.003906 119.417969 -86.003906 C 98.070312 -86.003906 73.011719 -70.226562 56.304688 -49.808594 C 52.285156 -44.859375 51.355469 -44.550781 51.355469 -43.3125 C 51.355469 -42.691406 51.972656 -41.765625 52.59375 -41.765625 C 53.210938 -41.765625 53.832031 -42.691406 54.449219 -42.691406 C 53.519531 -37.742188 52.902344 -33.101562 52.902344 -28.152344 C 52.902344 -14.230469 56.613281 0 72.390625 0 Z M 65.277344 -13.613281 C 65.277344 -35.886719 94.359375 -82.292969 119.417969 -82.292969 C 125.914062 -82.292969 129.007812 -77.34375 129.007812 -71.15625 C 129.007812 -48.261719 90.335938 -3.710938 72.390625 -3.710938 C 67.441406 -3.710938 65.277344 -7.734375 65.277344 -13.613281 Z M 65.277344 -13.613281 "/></g></g></g><g fill="#616041" fill-opacity="1"><g transform="translate(574.015234, 298.143248)"><g><path d="M 91.574219 -15.777344 C 96.523438 -21.035156 100.234375 -27.222656 100.234375 -34.648438 C 100.234375 -47.332031 93.738281 -54.140625 93.738281 -77.03125 C 93.738281 -80.125 94.359375 -81.054688 94.976562 -84.148438 C 100.546875 -86.003906 107.351562 -87.859375 107.351562 -93.738281 C 107.351562 -96.523438 105.804688 -98.378906 102.09375 -98.378906 C 95.285156 -98.378906 92.5 -89.40625 91.882812 -89.097656 C 90.027344 -88.171875 72.082031 -68.988281 64.96875 -60.019531 C 56.304688 -49.191406 51.355469 -45.167969 51.355469 -43.003906 C 51.355469 -42.382812 51.664062 -41.765625 52.59375 -41.765625 C 53.519531 -41.765625 54.140625 -42.691406 55.378906 -44.238281 C 62.800781 -52.59375 87.550781 -81.984375 91.265625 -84.148438 L 91.882812 -83.53125 C 90.027344 -81.984375 90.027344 -69.296875 90.027344 -54.449219 C 90.027344 -37.742188 73.320312 -3.710938 58.78125 -3.710938 C 55.066406 -3.710938 53.519531 -5.570312 53.519531 -8.351562 C 53.519531 -13.921875 57.851562 -11.445312 57.851562 -17.632812 C 57.851562 -20.417969 54.757812 -22.582031 51.355469 -22.582031 C 45.785156 -22.582031 43.621094 -19.179688 43.621094 -13.921875 C 43.621094 -10.519531 46.097656 -5.257812 48.570312 -3.402344 C 52.59375 -0.308594 55.378906 0 62.492188 0 C 79.816406 0 94.359375 -9.898438 111.0625 -28.769531 C 117.25 -35.578125 123.746094 -43.3125 123.746094 -44.238281 C 123.746094 -45.476562 123.128906 -46.097656 122.199219 -46.097656 C 120.964844 -46.097656 120.964844 -44.550781 114.464844 -37.433594 C 109.207031 -31.246094 102.402344 -22.894531 92.191406 -15.777344 L 91.574219 -16.398438 Z M 91.574219 -15.777344 "/></g></g></g><g fill="#616041" fill-opacity="1"><g transform="translate(-44.746379, 620.818125)"><g><path d="M 315.246094 -196.140625 C 315.246094 -210.0625 305.347656 -215.941406 292.355469 -215.941406 C 267.605469 -215.941406 237.90625 -201.089844 217.175781 -189.332031 C 197.378906 -214.082031 166.132812 -225.21875 143.546875 -225.21875 C 99.925781 -225.21875 68.988281 -198.613281 68.988281 -161.492188 C 68.988281 -130.246094 96.214844 -106.730469 127.769531 -103.949219 C 120.34375 -90.335938 112.300781 -67.75 112.300781 -52.285156 C 112.300781 -19.492188 130.554688 1.855469 165.511719 1.855469 C 166.132812 10.828125 171.390625 32.175781 173.246094 32.175781 C 174.175781 32.175781 174.792969 31.554688 174.792969 30.316406 C 174.792969 28.769531 170.773438 18.5625 169.226562 1.546875 C 203.253906 -1.238281 247.804688 -33.410156 247.804688 -68.679688 C 247.804688 -83.53125 239.140625 -95.285156 223.675781 -95.285156 C 190.261719 -95.285156 163.964844 -59.707031 163.964844 -11.445312 C 163.964844 -8.042969 164.585938 -5.257812 164.894531 -1.855469 C 138.90625 -2.476562 132.101562 -13.613281 132.101562 -38.671875 C 132.101562 -61.253906 139.214844 -83.21875 148.804688 -103.328125 C 224.292969 -105.804688 315.246094 -159.632812 315.246094 -196.140625 Z M 140.453125 -221.507812 C 168.296875 -221.507812 196.140625 -209.753906 214.082031 -187.476562 C 189.953125 -173.246094 152.210938 -146.023438 133.957031 -115.085938 C 107.96875 -116.632812 73.9375 -135.503906 73.9375 -167.058594 C 73.9375 -195.210938 101.78125 -221.507812 140.453125 -221.507812 Z M 294.828125 -212.226562 C 307.203125 -212.226562 311.535156 -204.800781 311.535156 -196.757812 C 311.535156 -165.820312 237.59375 -113.847656 153.136719 -113.847656 C 169.226562 -141.691406 190.570312 -165.820312 217.488281 -183.148438 C 232.953125 -162.417969 234.8125 -151.898438 236.667969 -151.898438 C 238.214844 -151.898438 238.523438 -152.519531 238.523438 -153.757812 C 238.523438 -154.375 230.789062 -171.082031 220.269531 -184.691406 C 236.667969 -196.140625 268.839844 -212.226562 294.828125 -212.226562 Z M 244.09375 -68.988281 C 244.09375 -34.957031 199.851562 -3.09375 168.914062 -1.855469 L 168.914062 -8.664062 C 168.914062 -45.785156 198.925781 -90.335938 224.910156 -90.335938 C 237.90625 -90.335938 244.09375 -81.671875 244.09375 -68.988281 Z M 244.09375 -68.988281 "/></g></g></g><g fill="#616041" fill-opacity="1"><g transform="translate(161.598219, 620.818125)"><g><path d="M 131.792969 -71.15625 C 131.792969 -79.816406 125.605469 -86.003906 116.324219 -86.003906 C 99.617188 -86.003906 79.816406 -73.9375 62.800781 -56.613281 C 60.328125 -54.140625 51.355469 -44.550781 51.355469 -43.3125 C 51.355469 -42.691406 52.59375 -41.457031 52.902344 -41.457031 C 53.210938 -41.457031 53.519531 -42.074219 53.832031 -42.382812 C 53.832031 -42.382812 54.140625 -42.382812 54.140625 -41.765625 C 54.140625 -40.835938 53.210938 -37.433594 53.210938 -32.792969 C 53.210938 -16.707031 60.636719 0.308594 77.652344 0 C 92.191406 -0.308594 104.257812 -6.1875 119.726562 -20.417969 C 129.007812 -28.769531 141.074219 -43.003906 141.074219 -44.238281 C 141.074219 -45.476562 140.453125 -46.097656 139.527344 -46.097656 C 138.289062 -46.097656 135.195312 -40.527344 123.128906 -28.152344 C 104.257812 -9.589844 88.171875 -3.402344 79.816406 -3.710938 C 70.226562 -4.023438 66.824219 -8.042969 66.824219 -20.109375 C 66.824219 -23.511719 67.441406 -26.914062 68.0625 -30.316406 C 86.3125 -34.03125 131.792969 -47.953125 131.792969 -71.15625 Z M 116.324219 -82.292969 C 120.34375 -82.292969 122.511719 -80.4375 122.511719 -76.414062 C 122.511719 -54.140625 89.71875 -36.503906 69.296875 -34.03125 C 73.628906 -51.355469 99.925781 -82.292969 116.324219 -82.292969 Z M 116.324219 -82.292969 "/></g></g></g><g fill="#616041" fill-opacity="1"><g transform="translate(247.600889, 620.818125)"><g><path d="M 52.59375 -41.457031 C 53.832031 -41.457031 56.613281 -46.714844 75.484375 -66.203125 C 87.859375 -78.890625 95.285156 -82.292969 99.617188 -82.292969 C 102.710938 -82.292969 104.875 -80.4375 104.875 -77.960938 C 104.875 -69.609375 88.480469 -50.425781 57.234375 0 L 76.722656 -1.855469 C 92.5 -21.964844 107.351562 -39.910156 123.4375 -54.757812 L 124.058594 -54.140625 C 120.035156 -49.191406 117.871094 -43.929688 117.871094 -36.816406 C 117.871094 -29.390625 124.675781 -24.75 131.480469 -24.75 C 137.359375 -24.75 144.164062 -27.222656 150.351562 -34.339844 C 153.136719 -37.742188 158.085938 -43.3125 158.085938 -44.238281 C 158.085938 -45.167969 157.160156 -45.785156 156.230469 -45.785156 C 154.992188 -45.785156 152.519531 -40.835938 145.710938 -34.03125 C 141.691406 -30.007812 136.742188 -27.84375 131.792969 -27.84375 C 126.222656 -27.84375 121.582031 -32.175781 121.582031 -38.363281 C 121.582031 -59.707031 156.230469 -68.988281 156.230469 -81.054688 C 156.230469 -84.457031 154.066406 -86.003906 148.804688 -86.003906 C 137.980469 -86.003906 131.480469 -75.796875 128.386719 -66.824219 C 125.605469 -58.472656 110.445312 -48.261719 94.046875 -29.082031 L 93.429688 -29.699219 C 99.617188 -38.050781 112.917969 -59.089844 112.917969 -71.464844 C 112.917969 -78.890625 108.589844 -86.003906 100.855469 -86.003906 C 92.191406 -86.003906 82.601562 -78.578125 69.296875 -64.347656 C 61.5625 -55.6875 51.046875 -44.550781 51.046875 -43.003906 C 51.046875 -42.074219 51.664062 -41.457031 52.59375 -41.457031 Z M 52.59375 -41.457031 "/></g></g></g><g fill="#616041" fill-opacity="1"><g transform="translate(350.618509, 620.818125)"><g><path d="M 72.390625 0 C 84.148438 0 101.472656 -17.632812 110.753906 -26.914062 C 110.753906 -25.367188 110.445312 -23.511719 110.445312 -21.347656 C 110.445312 -4.332031 115.703125 0 124.058594 0 C 132.410156 0 144.164062 -9.589844 158.398438 -24.441406 C 165.511719 -32.175781 175.414062 -43.3125 175.414062 -43.929688 C 175.414062 -44.550781 174.792969 -45.785156 173.554688 -45.785156 C 172.9375 -45.785156 172.628906 -45.167969 168.914062 -40.835938 C 150.972656 -19.800781 134.265625 -3.710938 124.984375 -3.710938 C 120.964844 -3.710938 119.726562 -5.570312 119.726562 -8.042969 C 119.726562 -18.871094 155.613281 -73.9375 164.273438 -84.457031 L 149.425781 -83.839844 C 142.929688 -83.53125 143.546875 -79.507812 132.410156 -61.875 L 131.792969 -62.492188 C 132.410156 -64.347656 132.71875 -67.441406 132.71875 -70.84375 C 132.71875 -79.199219 128.699219 -86.003906 119.417969 -86.003906 C 98.070312 -86.003906 73.011719 -70.226562 56.304688 -49.808594 C 52.285156 -44.859375 51.355469 -44.550781 51.355469 -43.3125 C 51.355469 -42.691406 51.972656 -41.765625 52.59375 -41.765625 C 53.210938 -41.765625 53.832031 -42.691406 54.449219 -42.691406 C 53.519531 -37.742188 52.902344 -33.101562 52.902344 -28.152344 C 52.902344 -14.230469 56.613281 0 72.390625 0 Z M 65.277344 -13.613281 C 65.277344 -35.886719 94.359375 -82.292969 119.417969 -82.292969 C 125.914062 -82.292969 129.007812 -77.34375 129.007812 -71.15625 C 129.007812 -48.261719 90.335938 -3.710938 72.390625 -3.710938 C 67.441406 -3.710938 65.277344 -7.734375 65.277344 -13.613281 Z M 65.277344 -13.613281 "/></g></g></g><g fill="#616041" fill-opacity="1"><g transform="translate(470.960383, 620.818125)"><g><path d="M 106.730469 -113.847656 L 93.738281 -113.847656 C 93.429688 -113.847656 92.5 -112.917969 92.5 -111.992188 C 92.5 -111.0625 92.8125 -110.136719 94.046875 -110.136719 L 105.183594 -110.136719 C 90.953125 -89.40625 72.082031 -67.132812 62.800781 -56.925781 C 50.738281 -43.3125 49.5 -42.074219 49.5 -40.835938 C 49.5 -39.910156 50.117188 -39.597656 51.046875 -39.597656 C 51.972656 -39.597656 60.328125 -49.808594 63.109375 -52.902344 C 71.464844 -62.492188 76.105469 -67.441406 81.984375 -74.558594 L 82.601562 -73.9375 C 64.347656 -47.953125 53.832031 -32.792969 53.832031 -15.160156 C 53.832031 -8.042969 57.851562 -0.308594 68.371094 0 C 77.03125 0 88.171875 -6.496094 107.042969 -25.367188 C 113.847656 -31.863281 123.746094 -43.3125 123.746094 -44.238281 C 123.746094 -45.476562 123.4375 -46.097656 122.199219 -46.097656 C 120.652344 -46.097656 118.796875 -41.144531 103.019531 -25.675781 C 89.097656 -11.757812 78.269531 -3.710938 68.988281 -3.710938 C 64.96875 -3.710938 63.109375 -5.257812 63.109375 -8.351562 C 63.109375 -22.582031 112.300781 -93.121094 121.890625 -110.136719 L 160.253906 -110.136719 C 161.492188 -110.136719 161.800781 -111.0625 161.800781 -111.992188 C 161.800781 -113.230469 160.871094 -113.847656 160.253906 -113.847656 L 124.058594 -113.847656 L 144.164062 -144.785156 L 124.984375 -143.546875 Z M 106.730469 -113.847656 "/></g></g></g><g fill="#616041" fill-opacity="1"><g transform="translate(539.638798, 620.818125)"><g><path d="M 106.730469 -113.847656 L 93.738281 -113.847656 C 93.429688 -113.847656 92.5 -112.917969 92.5 -111.992188 C 92.5 -111.0625 92.8125 -110.136719 94.046875 -110.136719 L 105.183594 -110.136719 C 90.953125 -89.40625 72.082031 -67.132812 62.800781 -56.925781 C 50.738281 -43.3125 49.5 -42.074219 49.5 -40.835938 C 49.5 -39.910156 50.117188 -39.597656 51.046875 -39.597656 C 51.972656 -39.597656 60.328125 -49.808594 63.109375 -52.902344 C 71.464844 -62.492188 76.105469 -67.441406 81.984375 -74.558594 L 82.601562 -73.9375 C 64.347656 -47.953125 53.832031 -32.792969 53.832031 -15.160156 C 53.832031 -8.042969 57.851562 -0.308594 68.371094 0 C 77.03125 0 88.171875 -6.496094 107.042969 -25.367188 C 113.847656 -31.863281 123.746094 -43.3125 123.746094 -44.238281 C 123.746094 -45.476562 123.4375 -46.097656 122.199219 -46.097656 C 120.652344 -46.097656 118.796875 -41.144531 103.019531 -25.675781 C 89.097656 -11.757812 78.269531 -3.710938 68.988281 -3.710938 C 64.96875 -3.710938 63.109375 -5.257812 63.109375 -8.351562 C 63.109375 -22.582031 112.300781 -93.121094 121.890625 -110.136719 L 160.253906 -110.136719 C 161.492188 -110.136719 161.800781 -111.0625 161.800781 -111.992188 C 161.800781 -113.230469 160.871094 -113.847656 160.253906 -113.847656 L 124.058594 -113.847656 L 144.164062 -144.785156 L 124.984375 -143.546875 Z M 106.730469 -113.847656 "/></g></g></g><g fill="#616041" fill-opacity="1"><g transform="translate(608.317212, 620.818125)"><g><path d="M 137.359375 -64.65625 C 137.359375 -77.03125 130.554688 -86.003906 118.796875 -86.003906 C 104.875 -86.003906 86.003906 -78.578125 68.0625 -61.5625 C 60.636719 -54.449219 50.117188 -43.621094 50.117188 -42.074219 C 50.117188 -41.144531 51.046875 -40.527344 51.972656 -40.527344 C 52.902344 -40.527344 55.066406 -45.476562 57.542969 -45.476562 C 58.160156 -45.476562 58.472656 -44.859375 58.472656 -43.621094 C 58.472656 -41.765625 56.925781 -38.671875 56.925781 -27.535156 C 56.925781 -10.828125 63.730469 0 76.105469 0 C 93.429688 0 106.113281 -11.136719 115.703125 -21.964844 C 116.632812 -21.65625 117.558594 -21.65625 119.726562 -21.65625 C 131.792969 -21.65625 142.621094 -26.914062 150.351562 -34.957031 C 157.46875 -42.382812 158.085938 -43.621094 158.085938 -44.238281 C 158.085938 -45.167969 157.777344 -45.785156 156.539062 -45.785156 C 155.613281 -45.785156 155.304688 -45.167969 151.28125 -40.527344 C 143.546875 -31.554688 133.027344 -25.367188 122.511719 -25.367188 C 120.652344 -25.367188 119.726562 -25.675781 119.105469 -25.988281 C 128.386719 -35.269531 137.359375 -51.972656 137.359375 -64.65625 Z M 130.554688 -68.371094 C 130.554688 -40.21875 101.78125 -3.710938 77.34375 -3.710938 C 73.011719 -3.710938 69.296875 -6.496094 69.296875 -15.160156 C 69.296875 -41.144531 98.070312 -82.292969 119.726562 -82.292969 C 127.460938 -82.292969 130.554688 -75.796875 130.554688 -68.371094 Z M 130.554688 -68.371094 "/></g></g></g></svg>