<svg xmlns="http://www.w3.org/2000/svg" xmlns:xlink="http://www.w3.org/1999/xlink" width="500" zoomAndPan="magnify" viewBox="0 0 375 374.999991" height="500" preserveAspectRatio="xMidYMid meet" version="1.0"><defs><clipPath id="08fa9fee64"><path d="M 12 14.644531 L 375 14.644531 L 375 358 L 12 358 Z M 12 14.644531 " clip-rule="nonzero"/></clipPath></defs><g clip-path="url(#08fa9fee64)"><path fill="#ec4f43" d="M 134.875 31.621094 C 138.324219 31.621094 141.117188 34.414062 141.117188 37.871094 C 141.117188 41.320312 138.324219 44.113281 134.875 44.113281 C 131.425781 44.113281 128.625 41.320312 128.625 37.871094 C 128.625 34.414062 131.425781 31.621094 134.875 31.621094 M 106.832031 44.9375 C 112.164062 44.9375 116.496094 49.261719 116.496094 54.601562 C 116.496094 59.933594 112.171875 64.265625 106.832031 64.265625 C 101.492188 64.265625 97.167969 59.941406 97.167969 54.601562 C 97.167969 49.261719 101.492188 44.9375 106.832031 44.9375 Z M 160.210938 21.601562 C 161.902344 21.601562 163.273438 22.972656 163.273438 24.664062 C 163.273438 26.355469 161.902344 27.726562 160.210938 27.726562 C 158.519531 27.726562 157.148438 26.355469 157.148438 24.664062 C 157.140625 22.972656 158.511719 21.601562 160.210938 21.601562 Z M 272.152344 327.917969 C 268.761719 328.546875 265.5 326.320312 264.867188 322.929688 C 264.238281 319.539062 266.464844 316.277344 269.855469 315.644531 C 273.246094 315.015625 276.507812 317.242188 277.140625 320.632812 C 277.78125 324.023438 275.542969 327.285156 272.152344 327.917969 Z M 297.277344 309.671875 C 292.027344 310.65625 286.980469 307.199219 286.007812 301.949219 C 285.023438 296.703125 288.480469 291.65625 293.726562 290.679688 C 298.976562 289.695312 304.023438 293.152344 305 298.402344 C 305.984375 303.648438 302.519531 308.695312 297.277344 309.671875 Z M 249.089844 342.417969 C 247.421875 342.730469 245.824219 341.636719 245.511719 339.972656 C 245.203125 338.304688 246.296875 336.707031 247.960938 336.394531 C 249.625 336.085938 251.222656 337.179688 251.535156 338.84375 C 251.847656 340.507812 250.753906 342.109375 249.089844 342.417969 Z M 183.316406 357.105469 C 141.335938 353.910156 103.59375 335.554688 75.550781 307.511719 C 44.59375 276.554688 25.449219 233.800781 25.449219 186.570312 C 25.449219 182.660156 25.585938 178.773438 25.847656 174.929688 C 25.769531 174.253906 24.148438 160 16.542969 152.90625 L 16.375 152.890625 C 12.09375 173.816406 11.707031 195.914062 15.871094 218.207031 C 24.5 264.394531 51.039062 302.707031 86.964844 327.3125 C 114.765625 346.347656 148.207031 357.1875 183.316406 357.105469 Z M 366.640625 186.957031 L 366.640625 186.570312 C 366.640625 139.582031 347.59375 97.046875 316.800781 66.261719 C 286.140625 35.601562 243.832031 16.589844 197.085938 16.429688 C 227.167969 18.878906 255.589844 29.265625 279.773438 45.835938 C 315.882812 70.574219 342.558594 109.089844 351.238281 155.515625 C 351.953125 159.359375 352.542969 163.203125 352.988281 167.039062 C 353.179688 167.6875 357.402344 181.40625 366.183594 186.980469 C 366.328125 186.949219 366.480469 186.941406 366.640625 186.957031 Z M 366.320312 196.964844 C 366.453125 194.703125 366.546875 192.433594 366.597656 190.152344 C 365.546875 189.195312 365.015625 188.117188 365.34375 187.480469 C 359.160156 183.332031 355.25 175.375 353.398438 170.773438 C 353.980469 176.855469 354.230469 182.902344 354.171875 188.898438 C 356.226562 192.675781 363.351562 194.492188 366.320312 196.964844 Z M 362.207031 225.296875 C 363.964844 217.734375 365.226562 209.980469 365.933594 202.0625 L 365.890625 202.105469 C 359.765625 207.640625 355.351562 195.921875 354.105469 192.0625 C 354.070312 193.121094 354.03125 194.191406 353.988281 195.242188 C 354.585938 202.949219 356.46875 214.984375 362.207031 225.296875 Z M 342.398438 274.132812 C 349.789062 261.84375 355.671875 248.554688 359.785156 234.5 C 356.265625 229.820312 353.414062 221.503906 353.019531 206.941406 C 351.742188 217.808594 349.429688 228.433594 346.164062 238.6875 C 344.523438 246.980469 342.816406 260.3125 339.773438 271.289062 C 340.3125 271.617188 341.363281 272.417969 342.398438 274.132812 Z M 332.597656 288.6875 C 335.910156 284.277344 339.015625 279.703125 341.890625 274.976562 C 340.992188 273.34375 340.058594 272.535156 339.519531 272.175781 C 338.484375 275.78125 337.292969 279.105469 335.902344 281.863281 C 335.902344 281.882812 334.320312 284.992188 332.597656 288.6875 Z M 66.449219 63.054688 L 66.105469 63.519531 C 68.855469 61.660156 73.566406 58.582031 77.023438 56.90625 C 77.054688 56.585938 77.222656 56.292969 77.519531 56.109375 C 79.191406 55.074219 81.066406 53.019531 81.078125 53.011719 C 81.480469 52.589844 82.144531 52.582031 82.566406 52.976562 C 82.984375 53.382812 82.992188 54.046875 82.597656 54.46875 C 82.589844 54.476562 80.546875 56.714844 78.628906 57.90625 C 78.199219 58.167969 77.660156 58.09375 77.324219 57.746094 C 72.496094 60.101562 65.246094 65.175781 64.4375 65.738281 L 58.972656 74.941406 L 49.011719 99.890625 C 55.496094 88.878906 63.175781 78.667969 71.875 69.414062 C 71.570312 69.019531 71.394531 68.523438 71.394531 67.992188 C 71.394531 66.6875 72.453125 65.636719 73.75 65.636719 C 75.046875 65.636719 76.105469 66.6875 76.105469 67.992188 C 76.105469 69.296875 75.054688 70.347656 73.75 70.347656 C 73.304688 70.347656 72.882812 70.222656 72.53125 70.011719 C 57.902344 85.566406 46.167969 103.867188 38.1875 124.0625 C 59.238281 82.191406 75.710938 100 75.710938 100 C 55.683594 96.171875 42.894531 115.339844 38.117188 124.257812 C 33.988281 134.746094 30.875 145.742188 28.890625 157.121094 C 31.136719 150.746094 37.613281 136.570312 52.046875 131.703125 C 70.90625 125.335938 57.035156 131.273438 44.621094 141.660156 C 34.855469 149.835938 30.109375 156.683594 28.53125 159.222656 C 27.132812 167.878906 26.382812 176.746094 26.34375 185.789062 C 27.367188 177.097656 31.09375 160.789062 44.6875 158.894531 C 62.746094 156.382812 31.589844 169.832031 26.367188 189.355469 C 27.109375 235.230469 46 276.699219 76.179688 306.871094 C 106.5625 337.253906 148.394531 356.207031 194.648438 356.691406 C 201.191406 356.238281 207.777344 355.40625 214.382812 354.167969 C 218.429688 353.414062 222.414062 352.519531 226.335938 351.496094 L 226.328125 351.453125 C 226.097656 350.242188 226.898438 349.070312 228.117188 348.84375 C 229.328125 348.617188 230.507812 349.417969 230.726562 350.636719 C 230.953125 351.847656 230.152344 353.015625 228.933594 353.246094 C 228.042969 353.414062 227.167969 353.027344 226.679688 352.320312 C 222.699219 353.363281 218.648438 354.269531 214.542969 355.042969 C 211.632812 355.589844 208.722656 356.054688 205.820312 356.449219 C 249.089844 354.109375 288.066406 335.605469 316.800781 306.871094 C 321.554688 302.121094 326.027344 297.089844 330.191406 291.796875 C 331.46875 288.914062 332.898438 285.925781 333.894531 283.917969 C 331.527344 286.253906 327.464844 290.140625 324.371094 292.421875 C 324.394531 292.742188 324.277344 293.066406 324.027344 293.296875 C 322.570312 294.625 321.097656 296.988281 321.097656 296.988281 C 320.777344 297.476562 320.132812 297.609375 319.644531 297.289062 C 319.15625 296.972656 319.019531 296.316406 319.339844 295.835938 C 319.347656 295.828125 320.9375 293.246094 322.613281 291.730469 C 322.984375 291.394531 323.53125 291.378906 323.925781 291.648438 C 328.242188 288.449219 334.429688 282.132812 335.121094 281.417969 L 338.804688 271.367188 L 344.011719 245.011719 C 339.664062 257.023438 333.992188 268.480469 327.136719 279.171875 C 327.507812 279.507812 327.769531 279.953125 327.871094 280.484375 C 328.105469 281.761719 327.265625 282.992188 325.984375 283.234375 C 324.707031 283.480469 323.472656 282.628906 323.234375 281.351562 C 323 280.074219 323.839844 278.835938 325.121094 278.601562 C 325.558594 278.515625 325.984375 278.566406 326.382812 278.710938 C 337.90625 260.734375 346.074219 240.589844 350.210938 219.265625 C 337.214844 264.300781 317.75 249.824219 317.75 249.824219 C 338.140625 249.902344 347.191406 228.710938 350.253906 219.070312 C 352.382812 208.003906 353.425781 196.621094 353.289062 185.074219 C 352.253906 191.75 348.496094 206.875 335.195312 214.3125 C 317.835938 224.035156 330.375 215.648438 340.664062 203.15625 C 348.765625 193.332031 352.171875 185.71875 353.246094 182.9375 C 353.027344 174.171875 352.136719 165.3125 350.515625 156.421875 C 351.101562 165.144531 350.429688 181.875 337.425781 186.234375 C 320.132812 192.019531 348.292969 173.078125 349.839844 152.925781 C 340.671875 107.964844 314.488281 70.675781 279.277344 46.558594 C 252.140625 27.972656 219.65625 17.203125 185.480469 16.765625 L 184.25 16.851562 L 184.25 16.894531 C 184.25 18.128906 183.25 19.128906 182.015625 19.128906 C 180.777344 19.128906 179.777344 18.128906 179.777344 16.894531 L 179.777344 16.792969 C 170.550781 16.984375 161.222656 17.925781 151.851562 19.6875 C 118.566406 25.902344 89.371094 41.421875 66.449219 63.054688 Z M 57.253906 72.425781 C 57.675781 73.234375 58.113281 73.738281 58.40625 74.03125 C 59.71875 71.417969 61.089844 68.992188 62.511719 66.882812 C 60.71875 68.691406 58.972656 70.542969 57.253906 72.425781 Z M 32.105469 108.519531 C 34.332031 113.859375 35.277344 122.324219 33.15625 135.671875 C 36.410156 125.226562 40.632812 115.207031 45.730469 105.726562 C 48.859375 97.878906 53 85.085938 58.003906 74.855469 C 57.683594 74.570312 57.164062 74.015625 56.648438 73.097656 C 51.628906 78.683594 46.984375 84.589844 42.753906 90.769531 C 38.851562 96.464844 35.292969 102.386719 32.105469 108.519531 Z M 20.203125 137.742188 C 26.769531 134.460938 28.847656 146.203125 29.34375 150.105469 C 29.574219 149.070312 29.808594 148.027344 30.050781 147.003906 C 30.851562 139.601562 31.210938 128.042969 27.898438 117.199219 C 24.902344 123.855469 22.332031 130.710938 20.203125 137.742188 Z M 17.890625 142.570312 C 16.964844 141.199219 17.046875 139.851562 19.058594 138.429688 C 21.347656 130.71875 24.171875 123.207031 27.496094 115.9375 C 25.5 109.992188 22.355469 104.332031 17.492188 99.761719 C 17.492188 99.761719 26.878906 97.675781 31.640625 107.492188 C 34.761719 101.554688 38.226562 95.800781 42.011719 90.265625 C 46.335938 83.957031 51.082031 77.933594 56.21875 72.242188 C 55.320312 70.230469 54.578125 66.964844 55.058594 61.851562 C 54.445312 61.582031 54.050781 60.945312 54.125 60.238281 C 54.503906 56.898438 56.21875 52.734375 56.230469 52.71875 C 56.539062 51.910156 57.441406 51.507812 58.246094 51.816406 C 59.054688 52.128906 59.457031 53.027344 59.148438 53.835938 C 59.148438 53.84375 57.574219 57.671875 57.238281 60.582031 C 57.164062 61.296875 56.617188 61.84375 55.933594 61.960938 C 55.496094 66.648438 56.09375 69.660156 56.851562 71.542969 C 59.710938 68.40625 62.6875 65.378906 65.785156 62.449219 C 67.492188 60.144531 69.957031 56.761719 71.867188 53.84375 C 71.4375 52.777344 69.863281 47.972656 72.285156 40.597656 C 72.050781 40.335938 71.949219 39.964844 72.058594 39.605469 C 72.691406 37.433594 74.296875 34.859375 74.304688 34.851562 C 74.597656 34.347656 75.246094 34.1875 75.742188 34.480469 C 76.246094 34.777344 76.40625 35.421875 76.113281 35.917969 C 76.113281 35.929688 74.632812 38.285156 74.085938 40.175781 C 73.960938 40.628906 73.546875 40.925781 73.109375 40.941406 C 71.117188 47.074219 71.976562 51.277344 72.488281 52.929688 C 75.886719 48.082031 81.582031 43.253906 81.597656 43.246094 L 82.167969 43.917969 C 82.152344 43.9375 75.96875 49.167969 72.742188 54.128906 C 71.648438 55.8125 70.359375 57.65625 69.132812 59.371094 C 91.648438 39.207031 119.804688 24.757812 151.691406 18.792969 C 161.195312 17.019531 170.660156 16.070312 180.011719 15.882812 C 180.382812 15.152344 181.140625 14.640625 182.015625 14.640625 C 182.878906 14.640625 183.628906 15.125 184 15.851562 C 184.488281 15.851562 184.976562 15.859375 185.453125 15.867188 C 189.105469 15.632812 192.78125 15.511719 196.480469 15.511719 C 243.714844 15.511719 286.476562 34.65625 317.421875 65.613281 C 348.378906 96.566406 367.523438 139.324219 367.523438 186.554688 L 367.523438 187.117188 C 368.085938 187.292969 368.707031 187.597656 369.304688 188 C 370.945312 189.117188 371.84375 190.648438 371.324219 191.414062 C 370.800781 192.171875 369.085938 191.902344 367.472656 190.816406 C 367.414062 193.164062 367.3125 195.496094 367.160156 197.816406 C 367.816406 198.726562 367.859375 199.75 366.925781 200.996094 C 366.203125 209.667969 364.832031 218.15625 362.855469 226.40625 C 365.832031 231.445312 369.785156 236.003906 375.007812 239.351562 C 375.007812 239.351562 366.847656 242.835938 360.464844 235.339844 C 356.285156 249.414062 350.335938 262.71875 342.894531 275.027344 C 343.835938 276.894531 344.691406 279.609375 345.054688 283.511719 C 345.710938 283.664062 346.214844 284.21875 346.265625 284.925781 C 346.511719 288.273438 345.585938 292.691406 345.585938 292.699219 C 345.433594 293.546875 344.617188 294.113281 343.769531 293.960938 C 342.917969 293.808594 342.355469 292.992188 342.507812 292.144531 C 342.507812 292.132812 343.347656 288.082031 343.136719 285.160156 C 343.085938 284.445312 343.523438 283.808594 344.164062 283.570312 C 343.84375 280.105469 343.136719 277.640625 342.347656 275.902344 C 338.855469 281.585938 335.046875 287.046875 330.941406 292.261719 C 330.605469 293.007812 330.285156 293.757812 329.988281 294.472656 C 330.605469 295.449219 333.035156 299.875 332.015625 307.578125 C 332.292969 307.796875 332.460938 308.140625 332.429688 308.511719 C 332.210938 310.757812 331.101562 313.585938 331.101562 313.59375 C 330.898438 314.140625 330.292969 314.417969 329.753906 314.222656 C 329.207031 314.03125 328.929688 313.425781 329.125 312.878906 C 329.125 312.867188 330.140625 310.277344 330.335938 308.320312 C 330.375 307.847656 330.722656 307.484375 331.160156 307.382812 C 331.992188 300.984375 330.375 297.011719 329.570312 295.492188 C 327.121094 300.875 322.402344 306.667969 322.386719 306.6875 L 322.039062 306.410156 L 321.695312 306.132812 C 321.714844 306.113281 326.523438 300.203125 328.878906 294.851562 C 325.269531 299.257812 321.453125 303.480469 317.429688 307.503906 C 286.476562 338.457031 243.722656 357.601562 196.492188 357.601562 C 195.875 357.601562 195.269531 357.59375 194.664062 357.59375 C 155.257812 360.308594 117.398438 349.222656 86.460938 328.035156 C 50.347656 303.296875 23.675781 264.78125 14.996094 218.355469 C 10.796875 195.914062 11.195312 173.675781 15.515625 152.613281 C 14.917969 152.34375 14.273438 151.890625 13.667969 151.285156 C 12.261719 149.878906 11.65625 148.214844 12.304688 147.558594 C 12.960938 146.902344 14.625 147.507812 16.03125 148.910156 L 16.257812 149.148438 C 16.761719 146.933594 17.308594 144.746094 17.890625 142.570312 Z M 28.707031 153.210938 C 27.4375 149.28125 21.277344 146.277344 18.585938 143.417969 C 18.007812 145.613281 17.46875 147.816406 16.972656 150.039062 C 17.636719 151.058594 17.855469 152.039062 17.46875 152.546875 C 22.785156 157.761719 25.164062 166.308594 26.140625 171.160156 C 26.679688 165.085938 27.546875 159.089844 28.707031 153.210938 Z M 319.855469 309.253906 L 322.050781 306.410156 C 322.050781 306.410156 315.210938 307.476562 315.640625 310.394531 C 316.070312 313.316406 319.785156 310.335938 320.46875 308.460938 C 320.46875 308.460938 320.140625 310.75 320.789062 311.953125 C 321.433594 313.15625 323.808594 312.710938 323.5625 311.078125 C 323.320312 309.445312 322.058594 306.410156 322.058594 306.410156 M 84.558594 41.203125 L 81.882812 43.589844 C 81.882812 43.589844 88.804688 43.792969 88.925781 40.847656 C 89.042969 37.90625 84.835938 40.140625 83.828125 41.867188 C 83.828125 41.867188 84.566406 39.671875 84.15625 38.375 C 83.742188 37.082031 81.328125 37.082031 81.269531 38.730469 C 81.210938 40.378906 81.890625 43.589844 81.890625 43.589844 " fill-opacity="1" fill-rule="evenodd"/></g></svg>