<svg xmlns="http://www.w3.org/2000/svg" xmlns:xlink="http://www.w3.org/1999/xlink" width="1080" zoomAndPan="magnify" viewBox="0 0 810 809.999993" height="1080" preserveAspectRatio="xMidYMid meet" version="1.0"><defs><clipPath id="ec81d48c0b"><path d="M 32 369 L 778 369 L 778 752.203125 L 32 752.203125 Z M 32 369 " clip-rule="nonzero"/></clipPath><clipPath id="9de78fabd3"><path d="M 115 57.703125 L 467 57.703125 L 467 510 L 115 510 Z M 115 57.703125 " clip-rule="nonzero"/></clipPath><clipPath id="fb278a7672"><path d="M 141 107.296875 L 434 107.296875 L 434 330.046875 L 141 330.046875 Z M 141 107.296875 " clip-rule="nonzero"/></clipPath><clipPath id="bbdc00ce12"><path d="M 141 111 L 428 111 L 428 330.046875 L 141 330.046875 Z M 141 111 " clip-rule="nonzero"/></clipPath></defs><g clip-path="url(#ec81d48c0b)"><path fill="#57b236" d="M 404.820312 369.378906 L 349.125 369.640625 C 308.355469 370.265625 267.585938 371.578125 227.546875 373.570312 C 195.164062 375.027344 179.203125 380.3125 176.335938 381.347656 L 175.929688 381.507812 C 172.511719 382.8125 169.164062 384.273438 165.878906 385.886719 C 162.597656 387.5 159.398438 389.261719 156.277344 391.171875 C 153.15625 393.082031 150.132812 395.128906 147.199219 397.316406 C 144.269531 399.507812 141.445312 401.824219 138.730469 404.273438 C 136.011719 406.722656 133.414062 409.289062 130.933594 411.980469 C 128.453125 414.667969 126.101562 417.464844 123.878906 420.371094 C 121.65625 423.273438 119.570312 426.277344 117.625 429.375 C 115.679688 432.472656 113.878906 435.652344 112.226562 438.914062 C 77.792969 508.816406 54.640625 561.125 37.109375 608.558594 C 28.066406 632.628906 31.285156 659.527344 46.121094 684.125 C 63.464844 712.929688 94.871094 734.683594 128.113281 740.917969 C 128.8125 741.050781 129.570312 741.152344 130.253906 741.238281 C 151.453125 743.597656 174.210938 744.863281 176.527344 744.996094 C 252.238281 749.800781 328.785156 752.277344 404.820312 752.277344 C 480.855469 752.277344 557.441406 749.859375 633.113281 744.996094 C 635.425781 744.863281 658.183594 743.539062 679.386719 741.238281 C 680.113281 741.152344 680.839844 741.050781 681.527344 740.917969 C 714.765625 734.683594 746.175781 712.929688 763.515625 684.125 C 778.367188 659.46875 781.570312 632.628906 772.527344 608.558594 C 755.054688 561.125 731.847656 508.832031 697.410156 438.914062 C 695.757812 435.652344 693.960938 432.472656 692.011719 429.375 C 690.066406 426.277344 687.984375 423.273438 685.761719 420.371094 C 683.539062 417.464844 681.1875 414.667969 678.707031 411.980469 C 676.226562 409.289062 673.625 406.722656 670.910156 404.273438 C 668.191406 401.824219 665.367188 399.507812 662.4375 397.316406 C 659.507812 395.128906 656.480469 393.082031 653.359375 391.171875 C 650.242188 389.261719 647.039062 387.5 643.757812 385.886719 C 640.476562 384.273438 637.125 382.8125 633.710938 381.507812 L 633.300781 381.347656 C 630.390625 380.3125 614.476562 375.027344 582.09375 373.570312 C 542.09375 371.578125 501.222656 370.265625 460.511719 369.640625 Z M 404.820312 369.378906 " fill-opacity="1" fill-rule="nonzero"/></g><path fill="#99badc" d="M 516.191406 531.054688 L 679.269531 741.238281 C 679.980469 741.152344 680.726562 741.050781 681.410156 740.917969 C 714.695312 734.683594 746.160156 712.929688 763.53125 684.125 C 778.394531 659.46875 781.601562 632.628906 772.542969 608.558594 C 755.070312 561.125 731.773438 508.832031 697.324219 438.914062 C 695.664062 435.648438 693.855469 432.464844 691.902344 429.363281 C 689.949219 426.265625 687.855469 423.261719 685.625 420.355469 C 683.394531 417.449219 681.03125 414.648438 678.542969 411.960938 C 676.054688 409.269531 673.445312 406.703125 670.722656 404.253906 C 667.996094 401.804688 665.164062 399.488281 662.222656 397.300781 C 659.28125 395.113281 656.25 393.066406 653.121094 391.15625 C 649.992188 389.25 646.78125 387.488281 643.492188 385.878906 C 640.199219 384.265625 636.84375 382.808594 633.417969 381.507812 Z M 516.191406 531.054688 " fill-opacity="1" fill-rule="nonzero"/><path fill="#4193d2" d="M 505.375 528.402344 L 319.699219 750.835938 C 348.296875 751.503906 376.867188 751.839844 405.417969 751.839844 C 481.566406 751.839844 558.300781 749.421875 634.015625 744.558594 C 636.34375 744.441406 659.132812 743.101562 680.375 740.800781 Z M 505.375 528.402344 " fill-opacity="1" fill-rule="nonzero"/><g clip-path="url(#9de78fabd3)"><path fill="#dd4247" d="M 411.851562 112.316406 C 378.246094 78.09375 335.65625 57.761719 290.78125 57.835938 L 289.558594 57.835938 C 198.425781 59.304688 117.484375 144.351562 115.210938 235.136719 C 115.035156 245.144531 115.8125 255.082031 117.546875 264.941406 C 119.277344 274.796875 121.929688 284.402344 125.507812 293.753906 L 125.621094 294.058594 C 126.058594 296.972656 162.984375 379.746094 277.824219 502.832031 C 278.226562 503.378906 278.65625 503.902344 279.117188 504.402344 C 279.476562 504.800781 279.851562 505.179688 280.246094 505.539062 C 280.640625 505.894531 281.054688 506.234375 281.484375 506.550781 C 281.914062 506.867188 282.359375 507.160156 282.816406 507.433594 C 283.277344 507.703125 283.75 507.949219 284.234375 508.171875 C 284.71875 508.394531 285.214844 508.59375 285.71875 508.765625 C 286.226562 508.9375 286.738281 509.082031 287.257812 509.203125 C 287.777344 509.320312 288.300781 509.414062 288.832031 509.480469 C 289.363281 509.546875 289.894531 509.585938 290.425781 509.597656 C 290.960938 509.609375 291.492188 509.59375 292.023438 509.550781 C 292.558594 509.507812 293.085938 509.4375 293.609375 509.339844 C 294.136719 509.242188 294.652344 509.121094 295.164062 508.96875 C 295.675781 508.820312 296.179688 508.644531 296.675781 508.441406 C 297.167969 508.242188 297.652344 508.015625 298.121094 507.765625 C 298.59375 507.511719 299.050781 507.238281 299.492188 506.941406 C 299.9375 506.644531 300.363281 506.324219 300.773438 505.984375 C 301.183594 505.640625 301.574219 505.28125 301.949219 504.898438 C 346.367188 460.34375 385.679688 411.667969 419.890625 358.863281 C 444.640625 320.199219 455.417969 295.414062 455.851562 294.335938 L 456.085938 293.753906 C 459.632812 284.488281 462.273438 274.972656 464.003906 265.207031 C 465.738281 255.4375 466.535156 245.59375 466.394531 235.675781 C 465.738281 190.402344 445.675781 146.84375 411.851562 112.316406 Z M 411.851562 112.316406 " fill-opacity="1" fill-rule="nonzero"/></g><path fill="#ffffff" d="M 531.074219 525.492188 L 696.027344 737.523438 C 691.617188 738.929688 687.136719 740.058594 682.589844 740.917969 C 681.890625 741.050781 681.132812 741.152344 680.449219 741.238281 C 669.527344 742.445312 658.214844 743.378906 649.464844 744.003906 L 505.285156 558.695312 Z M 531.074219 525.492188 " fill-opacity="1" fill-rule="nonzero"/><path fill="#fca84c" d="M 531.074219 525.535156 L 640.699219 384.640625 L 641.003906 384.261719 C 638.925781 383.289062 636.8125 382.40625 634.65625 381.609375 L 634.246094 381.449219 C 631.816406 380.574219 619.980469 376.660156 596.726562 374.589844 L 594.46875 377.664062 L 304.175781 750.820312 C 321.125 751.285156 338.070312 751.640625 355.007812 751.882812 L 505.285156 558.738281 Z M 531.074219 525.535156 " fill-opacity="1" fill-rule="nonzero"/><path fill="#ba2525" d="M 291.246094 305.417969 C 252.878906 305.417969 221.632812 274.238281 221.839844 236.15625 C 222.042969 198.074219 253.390625 166.371094 291.246094 166.328125 C 329.105469 166.285156 360.394531 198.105469 360.65625 236.230469 C 360.917969 274.355469 329.628906 305.359375 291.246094 305.417969 Z M 291.246094 305.417969 " fill-opacity="1" fill-rule="nonzero"/><g clip-path="url(#fb278a7672)"><path fill="#dd4247" d="M 287.773438 582.6875 C 293.441406 573.355469 439.761719 331.574219 433.617188 253.480469 C 433.617188 172.832031 368.238281 107.453125 287.589844 107.453125 C 206.9375 107.453125 141.558594 172.832031 141.558594 253.480469 C 141.558594 254.363281 141.609375 255.230469 141.625 256.109375 C 138.789062 336.824219 281.984375 573.457031 287.589844 582.6875 L 287.589844 583 C 287.589844 583 287.628906 582.929688 287.679688 582.84375 C 287.734375 582.929688 287.773438 583 287.773438 583 Z M 287.773438 582.6875 " fill-opacity="1" fill-rule="nonzero"/></g><g clip-path="url(#bbdc00ce12)"><path fill="#dd4247" d="M 284.824219 577.015625 C 290.375 567.875 433.742188 330.96875 427.722656 254.453125 C 427.722656 175.425781 363.660156 111.371094 284.640625 111.371094 C 205.621094 111.371094 141.558594 175.433594 141.558594 254.453125 C 141.558594 255.316406 141.609375 256.167969 141.625 257.027344 C 138.847656 336.113281 279.152344 567.972656 284.644531 577.015625 L 284.644531 577.316406 C 284.644531 577.316406 284.683594 577.25 284.738281 577.164062 C 284.792969 577.25 284.832031 577.316406 284.832031 577.316406 L 284.832031 577.015625 Z M 284.824219 577.015625 " fill-opacity="1" fill-rule="nonzero"/></g><path fill="#ba2525" d="M 349.1875 205.238281 C 338.847656 188.359375 322.523438 186.726562 316.734375 186.710938 C 315.585938 186.703125 314.4375 186.808594 313.316406 187.050781 C 292.222656 191.640625 284.734375 208.617188 284.734375 208.617188 C 284.734375 208.617188 277.246094 191.640625 256.152344 187.050781 C 255.03125 186.808594 253.882812 186.703125 252.734375 186.710938 C 246.949219 186.726562 230.617188 188.367188 220.28125 205.238281 C 220.28125 205.238281 205.726562 224.472656 225.21875 256.957031 C 233.300781 270.429688 247.308594 282.394531 259.402344 292.367188 C 267.859375 299.34375 276.320312 306.324219 284.738281 313.359375 C 293.15625 306.328125 301.613281 299.34375 310.074219 292.367188 C 322.167969 282.394531 336.171875 270.429688 344.257812 256.957031 C 363.742188 224.472656 349.1875 205.238281 349.1875 205.238281 Z M 349.1875 205.238281 " fill-opacity="1" fill-rule="nonzero"/></svg>